<svg width="13" height="23" viewBox="0 0 13 23" fill="none" xmlns="http://www.w3.org/2000/svg">
<path d="M0.00201441 11.5C0.00201442 11.3322 0.0372873 11.1732 0.108043 11.023C0.169825 10.8817 0.262498 10.7492 0.386269 10.6256L10.8793 0.357667C11.1178 0.119309 11.4093 -7.9756e-05 11.7538 -7.97259e-05C11.9746 -7.97066e-05 12.1777 0.0529316 12.3632 0.158962C12.5487 0.264993 12.6944 0.410682 12.8004 0.596234C12.9064 0.772812 12.9594 0.976105 12.9594 1.2057C12.9594 1.53255 12.8446 1.81954 12.6149 2.06688L2.96981 11.5L12.6149 20.9332C12.8446 21.1805 12.9594 21.4676 12.9594 21.7944C12.9594 22.024 12.9064 22.2271 12.8004 22.4038C12.6944 22.5893 12.5487 22.735 12.3632 22.841C12.1777 22.947 11.9746 23 11.7538 23C11.4093 23 11.1178 22.8852 10.8793 22.6555L0.386269 12.3744C0.262498 12.2508 0.169824 12.1139 0.108043 11.9637C0.0372872 11.8224 0.00201439 11.6678 0.00201441 11.5Z" fill="black"/>
</svg>
