<svg width="154" height="96" viewBox="0 0 154 96" fill="none" xmlns="http://www.w3.org/2000/svg">
<rect width="154" height="96" rx="24" fill="#F5F5F5"/>
<path d="M41.2278 53.184H44.3638C45.0038 56.288 47.2438 57.76 50.7638 57.76C53.9318 57.76 56.4918 56.288 56.4918 53.568C56.4918 51.296 55.0518 50.368 52.4598 49.856L47.7878 48.896C44.5878 48.256 42.0598 46.688 42.0598 43.072C42.0598 39.168 45.4198 36.288 50.2838 36.288C55.4678 36.288 58.5398 39.04 59.1798 43.264H56.0758C55.6918 40.736 53.7398 38.88 50.2517 38.88C47.1478 38.88 44.9398 40.512 44.9398 42.88C44.9398 44.928 46.2198 45.76 48.5878 46.24L53.1318 47.104C56.8758 47.84 59.4678 49.632 59.4678 53.376C59.4678 57.696 55.4678 60.352 50.7318 60.352C45.3878 60.352 41.8678 57.76 41.2278 53.184ZM76.055 54.88C75.511 58.144 72.823 60.352 69.079 60.352C64.535 60.352 61.367 56.832 61.367 51.712C61.367 46.688 64.631 43.008 69.079 43.008C73.719 43.008 76.311 46.592 76.311 51.232C76.311 51.584 76.279 51.904 76.215 52.288H64.055C64.279 56.064 66.391 58.048 69.079 58.048C71.447 58.048 72.983 56.8 73.431 54.88H76.055ZM69.047 45.344C66.231 45.344 64.599 47.392 64.183 50.176H73.527C73.495 47.584 71.959 45.344 69.047 45.344ZM79.138 60V43.36H82.018V46.048C82.882 44.48 84.674 43.008 87.234 43.008C90.882 43.008 92.962 45.6 92.962 49.216V60H90.082V49.792C90.082 47.264 88.93 45.408 86.274 45.408C84.098 45.408 82.018 47.168 82.018 50.144V60H79.138ZM108.383 57.056C107.487 58.944 105.407 60.352 102.911 60.352C98.5588 60.352 95.7108 56.576 95.7108 51.68C95.7108 46.784 98.5588 43.008 102.911 43.008C105.407 43.008 107.487 44.416 108.383 46.304V36.64H111.263V60H108.383V57.056ZM108.511 51.68C108.511 47.904 106.591 45.344 103.551 45.344C100.479 45.344 98.5908 47.904 98.5908 51.68C98.5908 55.456 100.479 58.016 103.551 58.016C106.591 58.016 108.511 55.456 108.511 51.68Z" fill="black"/>
</svg>
