<svg width="196" height="96" viewBox="0 0 196 96" fill="none" xmlns="http://www.w3.org/2000/svg">
<rect width="196" height="96" rx="24" fill="#F5F5F5"/>
<path d="M65.6155 36.64V60H62.6395V36.64H65.6155ZM69.4505 60V43.36H72.3305V46.048C73.1945 44.48 74.9865 43.008 77.5465 43.008C81.1945 43.008 83.2745 45.6 83.2745 49.216V60H80.3945V49.792C80.3945 47.264 79.2425 45.408 76.5865 45.408C74.4105 45.408 72.3305 47.168 72.3305 50.144V60H69.4505ZM98.6953 57.056C97.7993 58.944 95.7193 60.352 93.2233 60.352C88.8713 60.352 86.0233 56.576 86.0233 51.68C86.0233 46.784 88.8713 43.008 93.2233 43.008C95.7193 43.008 97.7993 44.416 98.6953 46.304V36.64H101.575V60H98.6953V57.056ZM98.8233 51.68C98.8233 47.904 96.9033 45.344 93.8633 45.344C90.7913 45.344 88.9033 47.904 88.9033 51.68C88.9033 55.456 90.7913 58.016 93.8633 58.016C96.9033 58.016 98.8233 55.456 98.8233 51.68ZM119.149 54.88C118.605 58.144 115.917 60.352 112.173 60.352C107.629 60.352 104.461 56.832 104.461 51.712C104.461 46.688 107.725 43.008 112.173 43.008C116.813 43.008 119.405 46.592 119.405 51.232C119.405 51.584 119.373 51.904 119.309 52.288H107.149C107.373 56.064 109.485 58.048 112.173 58.048C114.541 58.048 116.077 56.8 116.525 54.88H119.149ZM112.141 45.344C109.325 45.344 107.693 47.392 107.277 50.176H116.621C116.589 47.584 115.053 45.344 112.141 45.344ZM123.243 43.36L127.467 49.44L131.723 43.36H134.827L129.003 51.424L135.179 60H131.915L127.371 53.44L122.763 60H119.659L125.835 51.488L120.011 43.36H123.243Z" fill="black"/>
</svg>
