<svg width="196" height="96" viewBox="0 0 196 96" fill="none" xmlns="http://www.w3.org/2000/svg">
<rect width="196" height="96" rx="24" fill="#F5F5F5"/>
<path d="M46.5679 50.464V60H43.6239V36.64H52.5199C57.0959 36.64 60.3279 38.976 60.3279 43.552C60.3279 48.064 57.0959 50.464 52.5199 50.464H46.5679ZM52.4559 39.232H46.5679V47.872H52.4559C55.5919 47.872 57.3839 46.272 57.3839 43.552C57.3839 40.768 55.5919 39.232 52.4559 39.232ZM71.7036 43.2V46.048H70.8716C67.9916 46.048 65.8156 48.256 65.8156 51.392V60H62.9036V43.36H65.8156V46.848C66.6476 44.704 68.5996 43.2 71.0316 43.2H71.7036ZM87.8691 51.68C87.8691 56.768 84.7011 60.352 80.1571 60.352C75.6131 60.352 72.4451 56.768 72.4451 51.68C72.4451 46.592 75.6131 43.008 80.1571 43.008C84.7011 43.008 87.8691 46.592 87.8691 51.68ZM75.2931 51.68C75.2931 55.456 77.1491 58.016 80.1571 58.016C83.1331 58.016 84.9891 55.456 84.9891 51.68C84.9891 47.904 83.1331 45.344 80.1571 45.344C77.1491 45.344 75.2931 47.904 75.2931 51.68ZM90.6194 40.032V36.896H93.7874V40.032H90.6194ZM93.6274 61.472C93.6274 64.608 91.6754 66.08 88.9234 66.08H87.4194V63.68H88.6354C90.0114 63.68 90.7474 63.104 90.7474 61.568V43.36H93.6274V61.472ZM111.227 54.88C110.683 58.144 107.995 60.352 104.251 60.352C99.7069 60.352 96.5389 56.832 96.5389 51.712C96.5389 46.688 99.8029 43.008 104.251 43.008C108.891 43.008 111.483 46.592 111.483 51.232C111.483 51.584 111.451 51.904 111.387 52.288H99.2269C99.4509 56.064 101.563 58.048 104.251 58.048C106.619 58.048 108.155 56.8 108.603 54.88H111.227ZM104.219 45.344C101.403 45.344 99.7709 47.392 99.3549 50.176H108.699C108.667 47.584 107.131 45.344 104.219 45.344ZM113.57 51.68C113.57 46.528 116.866 43.008 121.282 43.008C125.058 43.008 127.426 45.248 127.97 48.32H125.122C124.706 46.496 123.298 45.344 121.282 45.344C118.37 45.344 116.418 47.872 116.418 51.68C116.418 55.488 118.37 58.016 121.282 58.016C123.298 58.016 124.77 56.864 125.186 54.88H128.002C127.458 58.144 124.93 60.352 121.218 60.352C116.834 60.352 113.57 56.832 113.57 51.68ZM131.489 55.936V45.728H128.993V43.36H131.489V39.2H134.305V43.36H138.241V45.728H134.305V55.584C134.305 57.088 134.977 57.6 136.321 57.6H138.241V60H135.617C133.121 60 131.489 58.784 131.489 55.936ZM139.563 54.88H142.443C142.731 56.864 144.363 58.112 146.827 58.112C148.907 58.112 150.603 57.056 150.603 55.36C150.603 54.048 149.899 53.344 148.299 53.024L144.203 52.192C141.899 51.712 140.203 50.656 140.203 48.032C140.203 45.248 142.763 43.008 146.475 43.008C150.507 43.008 152.875 45.152 153.227 48.32H150.411C150.155 46.432 148.779 45.248 146.475 45.248C144.427 45.248 142.987 46.304 142.987 47.84C142.987 49.024 143.723 49.568 145.035 49.824L149.291 50.688C151.915 51.232 153.419 52.672 153.419 55.136C153.419 58.272 150.507 60.352 146.827 60.352C142.603 60.352 139.883 58.08 139.563 54.88Z" fill="black" fill-opacity="0.44"/>
</svg>
