<svg width="60" height="60" viewBox="0 0 60 60" fill="none" xmlns="http://www.w3.org/2000/svg">
<rect width="60" height="60" rx="14" fill="white" fill-opacity="0.6"/>
<path d="M11.0797 17.1249C11.1234 16.2775 11.2038 15.3868 11.2013 14.4964C11.1999 14.073 11.2806 13.7477 11.6279 13.5069C12.5377 12.8745 13.5426 12.4242 14.5715 12.0353C15.4828 11.6903 16.4159 11.4017 17.3402 11.091C17.4748 11.0456 17.6129 11.0036 17.7515 10.9854C18.709 10.8619 19.6662 10.7197 20.6271 10.6352C21.4912 10.5589 22.3617 10.4934 23.2269 10.5229C24.4966 10.5671 25.7277 10.8961 26.8859 11.3945C27.8504 11.8098 28.7642 12.3551 29.6666 12.8979C30.8997 13.6386 31.666 14.8128 32.3948 16.0083C32.4317 16.0687 32.4635 16.1313 32.5015 16.1988C32.5307 16.187 32.5627 16.1846 32.5738 16.1684C33.2113 15.2022 34.1259 14.5212 35.0066 13.8069C35.109 13.7234 35.2209 13.6423 35.3408 13.5889C36.7183 12.9781 38.0841 12.3736 39.6381 12.2956C41.059 12.2247 42.4735 12.1065 43.8802 12.379C44.2838 12.4568 44.6853 12.5925 45.0619 12.7583C46.3299 13.3184 47.4187 14.1742 48.5178 14.991C49.4508 15.6831 50.2245 16.5623 50.8628 17.5499C51.0919 17.9034 51.3589 18.2473 51.6666 18.5319C52.0943 18.9268 52.3515 19.3404 52.1513 19.9362C52.1327 19.9918 52.1424 20.0573 52.1374 20.1425C52.6327 20.1432 53.1168 20.1454 53.5997 20.1424C53.6876 20.1418 53.775 20.1165 53.8637 20.1101C54.5216 20.0624 54.8267 20.3662 54.7753 21.0271C54.6895 22.141 54.5586 23.2536 54.515 24.3694C54.3207 29.2819 53.7698 34.1546 52.8265 38.9748C52.3739 41.2869 51.7042 43.557 51.144 45.8482C50.9719 46.5544 50.836 47.2697 50.6848 47.9808C50.6243 48.2674 50.5744 48.5555 50.5062 48.84C50.4137 49.2219 50.1574 49.426 49.7718 49.4672C49.5334 49.4922 49.2954 49.5154 49.0559 49.5275C48.7578 49.5423 48.4895 49.6057 48.2408 49.798C48.1126 49.8967 47.911 49.9417 47.7433 49.9411C46.803 49.9337 45.8629 49.9037 44.9233 49.8846C43.6295 49.8577 42.3367 49.8379 41.043 49.8031C40.698 49.7937 40.3556 49.7372 40.0115 49.7071C38.8893 49.6094 37.7611 49.3924 36.6461 49.4496C35.1734 49.5241 33.749 49.266 32.3032 49.14C31.4131 49.0627 30.5156 49.0879 29.622 49.0427C28.7549 48.9991 27.8861 48.9524 27.024 48.8582C25.7197 48.7154 24.4099 48.5837 23.122 48.3445C22.2044 48.1736 21.2923 47.956 20.3761 47.7685C20.1765 47.7279 19.9799 47.673 19.7815 47.6237C19.5574 47.5679 19.3226 47.5392 19.113 47.4499C17.7819 46.882 16.3629 46.6631 14.964 46.3483C13.6006 46.0414 12.2108 45.8255 10.8893 45.338C10.6527 45.2508 10.3843 45.251 10.1331 45.1983C9.52698 45.0727 8.92262 44.9413 8.3184 44.809C7.9297 44.7234 7.54086 44.6387 7.15446 44.5436C6.70042 44.4312 6.24172 44.3309 5.7997 44.1817C5.33512 44.0243 5.14292 43.7105 5.17477 43.2186C5.25763 41.9622 5.31157 40.7008 5.45278 39.4505C5.66995 37.533 5.64744 35.6077 5.72818 33.685C5.77747 32.5068 5.85426 31.3295 5.90659 30.1507C5.99153 28.1694 6.20451 26.2039 6.5147 24.2489C6.81276 22.3742 7.14456 20.5051 7.46184 18.634C7.47699 18.5463 7.49116 18.4585 7.50811 18.372C7.70926 17.3294 8.30372 16.893 9.36719 17.0152C9.57888 17.0397 9.78687 17.1051 9.99781 17.1137C10.1655 17.1212 10.3359 17.0521 10.5048 17.0509C10.6716 17.0504 10.8385 17.0924 11.0795 17.1259L11.0797 17.1249ZM28.2319 37.8033L28.2951 37.7884C28.4659 36.8935 28.652 36.0017 28.8055 35.1035C29.2003 32.7952 29.525 30.4732 29.9802 28.1772C30.5508 25.3004 30.9801 22.4098 31.1571 19.4822C31.1934 18.8804 31.2054 18.2683 31.3351 17.6835C31.4924 16.9702 31.3214 16.4255 30.8722 15.8598C30.2717 15.1044 29.681 14.3632 28.8492 13.845C27.4915 13.0002 26.0635 12.3488 24.493 11.9845C22.8996 11.6141 21.3295 11.8507 19.7572 12.0239C18.661 12.1449 17.5873 12.3805 16.531 12.7606C15.3354 13.1913 14.1501 13.6265 13.0117 14.1925C12.6715 14.3614 12.573 14.5588 12.5427 14.9542C12.4235 16.5006 12.2919 18.0512 12.0418 19.5804C11.6269 22.1187 11.1107 24.64 10.6475 27.1707C10.4476 28.2608 10.289 29.3597 10.0834 30.4481C9.92694 31.2759 9.72536 32.0945 9.5477 32.9183C9.5151 33.0677 9.50366 33.2211 9.4785 33.4021C9.55963 33.365 9.59951 33.3478 9.63882 33.3277C11.0688 32.6088 12.5841 32.1356 14.1584 31.8975C16.4542 31.5516 18.7255 31.8288 20.9742 32.3189C21.769 32.4925 22.5865 32.6239 23.3068 33.0358C25.2299 34.1359 26.8741 35.5395 28.0266 37.463C28.0938 37.5759 28.163 37.6881 28.2313 37.8003L28.2319 37.8033ZM29.5303 38.8974C29.6463 38.8011 29.7263 38.7362 29.8039 38.6681C30.6669 37.9108 31.5399 37.1747 32.6849 36.8592C32.9178 36.7949 33.1305 36.6419 33.3409 36.5123C34.5075 35.7933 35.7694 35.3106 37.0918 34.9754C37.728 34.8141 38.3725 34.6847 39.0067 34.5163C40.1592 34.2107 41.3368 34.0942 42.5162 34.1703C44.8368 34.3201 47.112 34.6975 49.1908 35.8843C49.2057 35.8124 49.2218 35.7465 49.232 35.6799C49.9875 30.8474 50.5361 25.9921 50.8758 21.1127C50.8867 20.9563 50.8508 20.8665 50.702 20.8014C50.6452 20.7767 50.5748 20.6515 50.5934 20.6097C50.6654 20.4539 50.7462 20.2846 50.8701 20.1735C51.1087 19.962 51.1228 19.7469 50.9153 19.5079C50.5453 19.0815 50.1611 18.6581 49.8503 18.1896C49.285 17.3375 48.6339 16.5484 47.8149 15.959C46.7826 15.2156 45.7896 14.3948 44.6108 13.8738C44.3068 13.7397 43.9838 13.6287 43.6582 13.5647C42.3303 13.3003 40.9929 13.3818 39.6547 13.4829C39.0684 13.5268 38.4884 13.5537 37.9322 13.7714C37.495 13.9425 37.0384 14.0685 36.6086 14.2574C36.1977 14.4381 35.7741 14.6249 35.4192 14.8923C34.5638 15.5382 33.705 16.1865 33.0327 17.0412C32.8111 17.3222 32.568 17.6012 32.1154 17.4288C32.0917 17.8903 32.0457 18.3141 32.0521 18.7363C32.0913 21.5144 31.7725 24.2624 31.369 27.0027C30.962 29.7671 30.5233 32.5262 30.0932 35.2874C30.0113 35.8127 29.8965 36.3336 29.8156 36.8591C29.7137 37.5139 29.6301 38.1723 29.5293 38.8973L29.5303 38.8974ZM10.9524 17.6361C10.5635 18.0981 10.054 18.1151 9.52928 18.0994C9.37986 18.0954 9.22957 18.1189 9.07993 18.1307C8.81561 18.1512 8.69978 18.2959 8.6741 18.5588C8.38165 21.4723 7.68638 24.3309 7.48312 27.2558C7.3412 29.2993 7.20024 31.3429 7.10145 33.3884C7.02025 35.0802 7.03028 36.7758 6.94714 38.4673C6.87578 39.9108 6.73488 41.3505 6.61167 42.7908C6.59235 43.015 6.65219 43.124 6.87303 43.1537C7.05695 43.1793 7.24104 43.2108 7.42321 43.2489C7.81356 43.3298 8.2024 43.4144 8.5922 43.4992C9.17069 43.625 9.74878 43.7537 10.3273 43.8795C10.7161 43.9641 11.1064 44.0381 11.493 44.1322C11.9654 44.2472 12.4329 44.3833 12.9051 44.5002C13.2237 44.579 13.546 44.6386 13.867 44.7069C14.5167 44.8456 15.1684 44.9776 15.816 45.1238C16.7842 45.3422 17.7662 45.5182 18.7112 45.8114C19.342 46.0076 19.9464 46.2948 20.6055 46.4091C20.9793 46.4739 21.3521 46.5464 21.7241 46.6169C21.9587 46.6613 22.2111 46.6698 22.4229 46.7643C23.1522 47.0906 23.9454 47.0983 24.7074 47.2456C25.55 47.4091 26.4119 47.4766 27.2664 47.5687C27.9974 47.6476 28.7342 47.7777 29.4637 47.7537C30.6134 47.7172 31.7494 47.7645 32.8869 47.9217C34.1144 48.0922 35.3385 48.3433 36.5907 48.1868C36.6339 48.1809 36.6796 48.1863 36.7234 48.1904C37.9766 48.3103 39.2305 48.4323 40.4842 48.5493C40.757 48.5744 41.0322 48.589 41.3065 48.5965C42.4229 48.6283 43.5385 48.6521 44.6546 48.6869C45.6203 48.7175 46.586 48.7619 47.5521 48.7965C47.6297 48.7994 47.7248 48.8038 47.7845 48.7647C48.2374 48.4665 48.7521 48.4335 49.2671 48.4123C49.4736 48.4035 49.5549 48.3299 49.5931 48.1261C49.7384 47.35 49.8839 46.5729 50.0665 45.806C50.5188 43.9073 51.0719 42.0295 51.4424 40.1164C52.354 35.4103 53.0266 30.6699 53.2493 25.8729C53.3191 24.3769 53.4418 22.8833 53.5399 21.3892C53.5414 21.3648 53.527 21.3401 53.5162 21.304C53.1444 21.2958 52.7714 21.2676 52.4011 21.2842C51.8758 21.3079 51.988 21.2673 51.9356 21.7435C51.907 21.999 51.8891 22.256 51.8701 22.5129C51.7291 24.3799 51.6475 26.2521 51.4364 28.1114C51.0868 31.1877 50.6585 34.255 50.2507 37.3242C50.2147 37.5975 50.0509 37.853 50.003 38.1265C49.8584 38.9471 49.728 39.7716 49.6192 40.5972C49.4666 41.7521 48.9944 42.7926 48.484 43.8169C48.2033 44.3808 47.7315 44.5027 47.2006 44.1625C46.6942 43.8375 46.2091 43.48 45.7128 43.1387C45.1275 42.7357 44.4938 42.4177 43.7821 42.377C42.9961 42.3319 42.2048 42.3739 41.4158 42.3856C40.5317 42.3999 39.6532 42.4593 38.7646 42.3141C38.0719 42.2011 37.3378 42.1721 36.6455 42.2692C35.6148 42.4151 34.5877 42.6492 33.5883 42.9465C31.7469 43.4947 29.9981 44.2778 28.3324 45.2373C28.0429 45.4033 27.7659 45.6075 27.5257 45.8376C27.3276 46.0281 27.1412 46.1837 26.8558 46.1283C26.5609 46.0705 26.4119 45.8574 26.3229 45.5895C26.2728 45.4385 26.2512 45.2677 26.1642 45.1412C25.5768 44.284 25.0675 43.3765 24.0806 42.8525C23.3683 42.4753 22.6478 42.165 21.8691 41.9818C20.8611 41.744 19.8516 41.5109 18.8438 41.2722C18.7406 41.248 18.6442 41.1961 18.5423 41.1691C18.278 41.0978 18.0154 41.013 17.7462 40.9697C16.3091 40.7384 14.8774 40.49 13.4829 40.0515C12.6539 39.7903 11.8073 39.5986 10.919 39.6646C10.3457 39.7073 9.76814 39.6813 9.19281 39.696C9.00859 39.701 8.81859 39.7121 8.64353 39.7647C8.02159 39.9516 7.66724 39.704 7.67542 39.0559C7.68102 38.6393 7.71026 38.223 7.72872 37.8063C7.76254 37.0305 7.79402 36.2573 7.78774 35.4789C7.7804 34.6372 7.98492 33.7905 8.13875 32.9534C8.44883 31.2619 8.78892 29.5745 9.11159 27.8847C9.38194 26.4649 9.65145 25.044 9.91031 23.6217C10.2569 21.7102 10.5928 19.7973 10.9326 17.8849C10.9469 17.8031 10.9469 17.7182 10.9536 17.6343L10.9524 17.6361ZM28.1327 39.234C27.5673 39.2837 27.2985 38.9316 27.0925 38.5399C26.4142 37.2507 25.4385 36.2202 24.3253 35.3057C23.5815 34.6941 22.7978 34.1491 21.8516 33.8864C20.4626 33.5009 19.0447 33.2881 17.6141 33.1168C15.2942 32.8408 13.0971 33.2932 10.9409 34.0898C9.90922 34.4703 9.22748 35.1798 8.85917 36.2041C8.83948 36.2605 8.84221 36.326 8.84258 36.3873C8.8417 36.8835 8.84263 37.3809 8.84368 37.8774C8.84396 38.0955 8.84507 38.3147 8.84658 38.5665C9.43532 38.5546 9.99758 38.5913 10.548 38.5217C11.5544 38.3942 12.5398 38.4887 13.5015 38.7536C15.0543 39.1816 16.6303 39.4707 18.2215 39.7007C18.4392 39.7319 18.6507 39.8077 18.8647 39.8651C19.2244 39.9605 19.5829 40.0577 19.9429 40.1511C20.1914 40.2162 20.4404 40.2775 20.6902 40.3398C21.1109 40.4437 21.5272 40.5726 21.9541 40.6457C23.3055 40.876 24.4826 41.4866 25.5875 42.2617C25.6811 42.327 25.7639 42.4126 25.8353 42.5024C26.1376 42.8829 26.4409 43.2635 26.7299 43.6549C26.9333 43.9308 27.1137 44.2233 27.308 44.5147C27.5248 44.389 27.7285 44.2653 27.9378 44.1504C29.1455 43.4904 30.4016 42.9367 31.6792 42.4266C33.0949 41.8606 34.568 41.5059 36.0572 41.2343C36.78 41.1029 37.5389 41.1442 38.2802 41.1565C38.7734 41.1648 39.2647 41.3002 39.7573 41.3055C40.8382 41.3166 41.9215 41.3103 43.0011 41.2591C44.3919 41.1919 45.5943 41.6274 46.6725 42.4817C46.9666 42.715 47.2955 42.9048 47.6386 43.134C47.9905 42.3837 48.3378 41.6949 48.478 40.928C48.6504 39.9859 48.8104 39.0402 48.9731 38.0968C48.9881 38.0101 49.0209 37.9022 48.9856 37.8361C48.7141 37.3267 48.5042 36.7993 47.8946 36.5281C46.6603 35.9806 45.3621 35.737 44.0464 35.5206C42.3263 35.2381 40.637 35.324 38.9606 35.7926C38.4565 35.9337 37.9436 36.039 37.4357 36.1648C36.3004 36.4461 35.2395 36.9084 34.227 37.4919C33.7454 37.7694 33.2389 38.0058 32.7486 38.2682C32.3989 38.4554 32.0347 38.6268 31.7163 38.8589C31.3233 39.1447 30.9808 39.5006 30.5959 39.7994C30.2541 40.0647 29.8792 40.2849 29.5289 40.5401C29.4422 40.6031 29.3735 40.7139 29.3344 40.818C29.2115 41.1482 29.1461 41.5052 28.9849 41.8133C28.7713 42.2217 28.3023 42.3233 27.9029 42.1089C27.6209 41.9582 27.5735 41.8234 27.7076 41.5263C28.0314 40.8076 28.0828 40.0402 28.1328 39.2331L28.1327 39.234Z" fill="#808080"/>
</svg>
