<svg width="60" height="60" viewBox="0 0 60 60" fill="none" xmlns="http://www.w3.org/2000/svg">
<rect width="60" height="60" rx="14" fill="white"/>
<mask id="path-2-outside-1_729_4225" maskUnits="userSpaceOnUse" x="4" y="7" width="52" height="42" fill="black">
<rect fill="white" x="4" y="7" width="52" height="42"/>
<path d="M31.8957 42.46C31.7773 43.0493 31.6572 43.5906 31.5614 44.1364C31.4223 44.9275 31.341 45.7304 31.0447 46.488C30.8948 46.8727 30.7159 46.9985 30.3211 46.9279C30.2516 47.0945 30.1865 47.2692 30.108 47.4375C29.8794 47.9272 29.519 48.0594 29.0176 47.8675C28.8144 47.7897 28.5948 47.7435 28.3789 47.71C27.4006 47.5597 26.4114 47.4647 25.4448 47.2601C24.6156 47.0845 23.8044 46.9967 22.9588 47.0927C22.4927 47.1461 22.0112 47.0728 21.5379 47.0465C21.0799 47.0212 20.621 46.9488 20.1648 46.9587C19.0536 46.9813 17.9814 46.7922 16.91 46.5143C15.7998 46.2255 14.6823 45.9449 13.5522 45.7576C12.5125 45.5856 11.4537 45.4996 10.3995 45.4525C9.36429 45.4064 8.37512 45.1574 7.37149 44.9511C6.82948 44.8397 6.27031 44.7936 5.71655 44.7637C5.22965 44.7374 4.9469 44.4958 5.00832 44.0079C5.0562 43.6286 5.1637 43.2548 5.2721 42.8864C5.72559 41.3431 6.20436 39.807 6.63887 38.2592C6.76444 37.8129 6.76534 37.3332 6.83852 36.8706C7.03635 35.6224 7.24231 34.3751 7.44286 33.1269C7.46905 32.9658 7.49435 32.8028 7.49525 32.6399C7.49887 32.1384 7.92073 31.7519 8.41667 31.808C8.45732 31.8126 8.50159 31.8117 8.53772 31.828C9.27485 32.1611 10.0608 31.9701 10.8214 32.0398C10.9659 32.0533 11.1141 32.009 11.2613 32.0027C11.6687 31.9864 12.0771 31.9764 12.4854 31.9628C12.8539 31.9502 13.2306 31.9809 13.5884 31.9121C14.4881 31.7383 15.3689 31.856 16.2532 32.0045C16.6318 32.0678 17.0139 32.1158 17.4258 32.1746C17.4827 31.8035 17.5342 31.4415 17.5956 31.0812C17.8142 29.8031 18.2433 28.5866 18.6977 27.3809C18.9723 26.6522 19.4123 26.0141 19.9136 25.4212C20.2316 25.0446 20.5532 24.6717 20.8784 24.3015C21.8522 23.1909 23.0573 22.7048 24.5307 22.9564C25.0474 23.0451 25.5641 23.1384 26.079 23.2416C26.7032 23.3674 27.2488 23.6643 27.7403 24.0607C27.9128 24.2001 28.0962 24.3223 28.1504 24.5848C28.1784 24.7224 28.3672 24.8265 28.4828 24.946L28.5506 24.9125C28.528 24.5486 28.5271 24.182 28.4774 23.8227C28.2425 22.1264 28.4377 20.4455 28.6138 18.7601C28.9237 15.8029 29.2796 12.8475 29.1892 9.86231C29.1757 9.41515 29.2579 8.96167 29.332 8.51723C29.4151 8.01939 29.846 7.84741 30.2498 8.14973C30.5244 8.35521 30.7647 8.60775 31.023 8.83494C31.4485 9.20787 31.874 9.5808 32.304 9.9483C32.7222 10.3058 33.1541 10.6462 33.5651 11.011C34.8849 12.1813 35.7729 13.6432 36.4007 15.277C36.4206 15.3286 36.4459 15.3784 36.4865 15.4698C36.538 15.4019 36.5669 15.3512 36.6058 15.3123C37.0638 14.8534 37.491 14.3574 37.9888 13.9482C38.9256 13.1779 39.8253 12.3615 40.8488 11.6953C41.707 11.1359 42.5037 10.4851 43.3457 9.90032C43.7549 9.6161 44.2048 9.39072 44.6375 9.14089C44.9428 8.96438 45.2508 8.79421 45.5553 8.6177C45.6691 8.55253 45.7748 8.47288 45.8895 8.40952C46.4116 8.11805 46.7441 8.21762 47.0151 8.74895C47.4207 9.54459 47.6827 10.3873 47.8687 11.2608C48.1976 12.8041 48.296 14.361 48.0241 15.9133C47.7766 17.3281 47.4668 18.7338 46.9573 20.0852C46.8272 20.4301 46.7314 20.7895 46.6483 21.1488C46.4866 21.8494 46.2472 22.5201 45.9094 23.1538C45.4694 23.9784 45.0232 24.8003 44.5887 25.6276C44.4216 25.9453 44.2788 26.2757 44.1623 26.6359C44.2129 26.6079 44.2662 26.5843 44.3132 26.5508C44.9283 26.1137 45.5363 25.6647 46.1605 25.2411C46.4848 25.0211 46.8245 24.812 47.1822 24.6554C48.1714 24.2219 49.1054 23.6987 49.9699 23.0497C50.1732 22.8976 50.3882 22.7582 50.6068 22.6297C51.0124 22.3916 51.3421 22.4957 51.5228 22.9284C51.8417 23.6941 52.1479 24.4644 52.4551 25.2347C52.7676 26.0204 53.1019 26.798 53.3792 27.5963C53.8923 29.0772 54.3711 30.5689 54.8598 32.0579C54.905 32.1964 54.9248 32.3466 54.9366 32.4933C54.9727 32.9359 54.7071 33.2156 54.2663 33.1522C53.8878 33.0979 53.502 33.0192 53.147 32.8816C52.3683 32.5783 51.6068 32.2317 50.8381 31.9022C50.3195 31.6795 49.8019 31.4568 49.2617 31.2242C49.1678 31.6315 49.0973 32.0081 48.9934 32.3747C48.6899 33.4482 48.1398 34.4077 47.5128 35.3101C46.548 36.6978 45.558 38.0664 44.3141 39.2358C43.1271 40.351 41.8768 41.3313 40.3709 42.0065C38.8452 42.6909 37.2634 43.0792 35.6229 43.2964C35.1595 43.358 34.7105 43.2901 34.2616 43.167C33.9237 43.0746 33.5741 43.0049 33.2254 42.9733C32.7548 42.9298 32.3392 42.7624 31.8966 42.4618L31.8957 42.46ZM32.0745 41.3865C32.4278 41.5286 32.7331 41.7015 33.061 41.7739C33.6518 41.9034 34.2543 41.9812 34.8542 42.06C35.0791 42.0889 35.3158 42.0871 35.5398 42.0509C37.0556 41.8056 38.5326 41.4544 39.9445 40.7982C41.155 40.236 42.2038 39.4866 43.1984 38.6149C44.5625 37.4192 45.6519 35.9908 46.7359 34.5561C47.4785 33.5731 48.0937 32.5231 48.2472 31.2659C48.268 31.0948 48.2707 30.9219 48.2852 30.7019C48.2798 30.7065 48.3412 30.6793 48.3764 30.6331C48.651 30.2702 48.8805 30.1769 49.2988 30.3335C49.9203 30.5644 50.5363 30.8133 51.1461 31.0731C51.8923 31.3917 52.6276 31.7356 53.3738 32.0561C53.5951 32.1511 53.8345 32.2027 54.1371 32.2968C53.2554 29.2347 51.9718 26.4042 50.848 23.4742C50.5978 23.6579 50.3764 23.8109 50.166 23.9766C49.4397 24.5486 48.6511 25.0093 47.8154 25.4049C47.3674 25.6167 46.9573 25.9118 46.5345 26.1761C45.819 26.6242 45.1126 27.0858 44.3917 27.5239C44.0973 27.7031 43.7693 27.7764 43.4676 27.6126C43.2291 27.8362 43.0196 28.0552 42.7865 28.2453C42.4956 28.4816 42.174 28.4653 41.9699 28.2326C41.7684 28.0027 41.7937 27.6751 42.0503 27.4117C42.5986 26.8496 43.0774 26.2449 43.3421 25.49C43.4017 25.3207 43.501 25.1659 43.586 25.0066C44.0358 24.1684 44.5101 23.342 44.9292 22.4894C45.1659 22.0069 45.3267 21.4846 45.4984 20.9723C45.6601 20.4899 45.7685 19.9893 45.9428 19.5123C46.4134 18.226 46.7278 16.8954 46.9654 15.5567C47.2301 14.0632 47.1262 12.557 46.7585 11.0807C46.6248 10.5448 46.4414 10.0207 46.2843 9.50205C45.6411 9.84149 45.0539 10.1501 44.4703 10.4615C44.3619 10.5195 44.2599 10.5901 44.1596 10.6607C42.5823 11.7813 41.0051 12.9019 39.4287 14.0243C38.529 14.6651 37.7006 15.3838 36.9825 16.2274C36.865 16.365 36.7918 16.4854 36.8045 16.6809C36.8253 17.0095 36.5823 17.2539 36.2932 17.1896C36.0945 17.1453 36.0132 17.2322 35.912 17.3589C35.2254 18.2179 34.5308 19.0706 33.8487 19.9323C33.3952 20.5052 32.9824 21.1117 32.5082 21.6657C31.2959 23.0823 30.4033 24.7115 29.4241 26.282C29.2922 26.4929 29.117 26.5952 28.8893 26.5002C28.7285 26.4332 28.5452 26.3372 28.453 26.1996C28.1359 25.7271 27.6463 25.3705 27.4955 24.7849C27.4828 24.7369 27.4286 24.6925 27.3843 24.6609C26.9805 24.3712 26.5496 24.1286 26.0519 24.0589C25.378 23.9648 24.7014 23.8842 24.0248 23.8154C23.1368 23.7258 22.3987 24.0562 21.7899 24.6844C21.4475 25.0383 21.1124 25.4031 20.8161 25.795C20.4701 26.2512 20.1702 26.7427 19.8495 27.217C19.7284 27.3963 19.742 27.5339 19.9326 27.666C20.1205 27.7964 20.293 27.9511 20.4638 28.1041C21.0238 28.6083 21.5984 29.098 22.1314 29.6302C22.4069 29.9054 22.6137 30.2512 22.8396 30.5734C22.976 30.768 22.995 30.9789 22.8757 31.2016C22.8423 31.264 22.8495 31.3699 22.8757 31.4415C22.9986 31.7718 23.1458 32.0923 23.2605 32.4254C23.3093 32.5657 23.3762 32.6209 23.5189 32.6308C23.9363 32.6598 24.3545 32.6833 24.7691 32.7367C26.2506 32.9277 27.7312 33.1079 29.229 33.1024C29.3428 33.1024 29.4584 33.1187 29.5723 33.1341C31.0104 33.3224 32.4404 33.5804 33.9011 33.5541C34.3429 33.546 34.5859 33.8736 34.5145 34.3145C34.491 34.4602 34.4477 34.6023 34.4115 34.7453C34.3447 35.0078 34.2525 35.2667 34.2128 35.5328C34.0755 36.4633 33.734 37.3187 33.3266 38.1587C32.9616 38.9118 32.6274 39.6803 32.3076 40.4533C32.1911 40.7357 32.154 41.0507 32.0727 41.3829L32.0745 41.3865ZM29.3464 46.9135C29.3636 46.8754 29.3898 46.8329 29.4033 46.7867C29.6798 45.8408 29.9571 44.8958 30.2254 43.9481C30.2498 43.863 30.1775 43.7499 30.2037 43.6675C30.3383 43.2394 30.5018 42.8212 30.6346 42.3922C31.1477 40.7348 31.7557 39.1145 32.5118 37.5513C32.669 37.2264 32.8334 36.8987 32.9336 36.5547C33.1107 35.9465 33.2408 35.3237 33.3998 34.6729C33.0682 34.6729 32.7503 34.5833 32.5262 34.6901C31.8469 35.0141 31.1902 35.3907 30.5506 35.7899C29.8162 36.2479 29.0537 36.638 28.2498 36.9557C27.7854 37.1395 27.3338 37.3576 26.8812 37.5694C26.4584 37.7668 26.0474 37.9912 25.6201 38.1759C25.3184 38.3062 25.1205 38.566 24.7962 38.6882C23.0501 39.3435 21.4096 40.2324 19.761 41.096C18.966 41.5123 18.1376 41.7911 17.2632 41.9513C16.8142 42.0337 16.5026 41.8681 16.2894 41.4653C16.1783 41.2553 16.0762 41.0353 15.9307 40.8507C15.2397 39.9726 14.5568 39.0838 13.545 38.5352C13.452 38.4845 13.3716 38.4121 13.2875 38.3461C12.3336 37.5957 11.3679 36.8589 10.4302 36.0886C9.84216 35.6052 9.29383 35.0712 8.73104 34.557C8.61902 34.4548 8.52236 34.3362 8.38234 34.1859C8.25136 34.8711 8.11405 35.502 8.01378 36.1393C7.87376 37.0227 7.84124 37.9315 7.62082 38.7923C7.24051 40.2786 6.74999 41.7359 6.30734 43.2059C6.27302 43.319 6.24321 43.4331 6.21882 43.5218C6.93156 43.6558 7.6154 43.7825 8.29833 43.9137C8.70032 43.9916 9.0978 44.1219 9.5034 44.1527C10.6714 44.2414 11.8431 44.3011 12.9976 44.5111C14.0373 44.7003 15.0744 44.9067 16.1078 45.1267C17.181 45.3557 18.2189 45.7485 19.3274 45.8073C20.0636 45.8472 20.8034 45.8644 21.536 45.9431C22.1765 46.0119 22.8089 46.011 23.4502 45.9685C23.9037 45.9386 24.3681 45.9676 24.8197 46.0255C25.3057 46.0879 25.7809 46.2735 26.266 46.3034C27.3157 46.3676 28.3049 46.6863 29.3491 46.9135H29.3464ZM9.02011 33.1721C9.21162 33.4029 9.34622 33.6129 9.52599 33.7732C10.124 34.3081 10.7229 34.8458 11.3499 35.3463C12.592 36.3384 13.8548 37.3042 15.1051 38.2863C15.2659 38.4121 15.4176 38.557 15.545 38.7154C16.0699 39.3662 16.5812 40.0279 17.1051 40.6787C17.153 40.7384 17.2731 40.8 17.3346 40.78C17.8847 40.6008 18.4538 40.4542 18.9705 40.2016C20.5541 39.4286 22.0934 38.5642 23.7447 37.9324C24.1729 37.7686 24.5903 37.5749 25.004 37.3793C25.9137 36.9485 26.7963 36.4488 27.7321 36.0859C28.8469 35.6532 29.8803 35.073 30.9345 34.5263C30.9426 34.5217 30.9399 34.4982 30.9517 34.4285C30.1423 34.3597 29.3374 34.2864 28.5325 34.223C27.6021 34.1497 26.6707 34.0755 25.7384 34.0221C24.7818 33.9678 23.8468 33.5668 22.8793 33.8148C22.7863 33.7315 22.6887 33.6428 22.5803 33.6265C22.0139 33.5442 21.4448 33.4799 20.8757 33.4084C20.5776 33.3713 20.2677 33.3586 20.1151 33.0626C19.7844 33.2527 19.48 33.4473 19.1584 33.6084C18.8305 33.7732 18.4927 33.9252 18.1467 34.0483C17.6833 34.2131 17.3969 34.0311 17.3273 33.5423C17.3084 33.4075 17.256 33.3622 17.1331 33.345C16.8007 33.297 16.4682 33.2464 16.1376 33.1857C15.2876 33.0291 14.4447 32.9467 13.5739 33.0907C13.0409 33.1785 12.4745 33.0536 11.9343 33.1178C11.2044 33.2047 10.4799 33.1875 9.75092 33.1739C9.5305 33.1694 9.31099 33.1739 9.02011 33.1739V33.1721ZM28.9959 25.3995L29.0673 25.4293C29.2579 25.1904 29.4602 24.9596 29.6364 24.7106C30.2046 23.9069 30.7575 23.0931 31.3275 22.2902C31.6599 21.8223 32.0411 21.3869 32.3537 20.9062C33.3582 19.3647 34.4612 17.8966 35.5904 16.4456C35.6401 16.3822 35.6663 16.2573 35.6392 16.184C35.454 15.6843 35.2742 15.1811 35.0511 14.6977C34.3402 13.158 33.2435 11.9369 31.9192 10.896C31.3537 10.4516 30.8379 9.94287 30.2986 9.46494C30.2588 9.42964 30.2154 9.39796 30.1034 9.30925C30.1034 9.58714 30.107 9.79713 30.1034 10.008C30.0808 11.24 30.1278 12.4782 30.0149 13.7011C29.8315 15.6861 29.5533 17.6639 29.2949 19.6417C29.1296 20.9126 28.9327 22.1771 29.0086 23.4669C29.0402 23.9983 29.0022 24.5332 28.9968 25.0664C28.9959 25.1768 28.9968 25.2872 28.9968 25.3986L28.9959 25.3995ZM21.9371 30.7997C21.1874 29.8846 20.3048 29.1903 19.3924 28.5087C18.9163 29.966 18.5062 31.4134 18.4339 32.9766C19.7375 32.4489 20.6661 31.3944 21.9362 30.7997H21.9371ZM22.5559 32.4371C22.4755 32.1511 22.3969 31.8687 22.3048 31.5401C21.8152 31.8433 21.3725 32.1185 20.929 32.3937L20.9462 32.4371H22.5559Z"/>
</mask>
<path d="M31.8957 42.46C31.7773 43.0493 31.6572 43.5906 31.5614 44.1364C31.4223 44.9275 31.341 45.7304 31.0447 46.488C30.8948 46.8727 30.7159 46.9985 30.3211 46.9279C30.2516 47.0945 30.1865 47.2692 30.108 47.4375C29.8794 47.9272 29.519 48.0594 29.0176 47.8675C28.8144 47.7897 28.5948 47.7435 28.3789 47.71C27.4006 47.5597 26.4114 47.4647 25.4448 47.2601C24.6156 47.0845 23.8044 46.9967 22.9588 47.0927C22.4927 47.1461 22.0112 47.0728 21.5379 47.0465C21.0799 47.0212 20.621 46.9488 20.1648 46.9587C19.0536 46.9813 17.9814 46.7922 16.91 46.5143C15.7998 46.2255 14.6823 45.9449 13.5522 45.7576C12.5125 45.5856 11.4537 45.4996 10.3995 45.4525C9.36429 45.4064 8.37512 45.1574 7.37149 44.9511C6.82948 44.8397 6.27031 44.7936 5.71655 44.7637C5.22965 44.7374 4.9469 44.4958 5.00832 44.0079C5.0562 43.6286 5.1637 43.2548 5.2721 42.8864C5.72559 41.3431 6.20436 39.807 6.63887 38.2592C6.76444 37.8129 6.76534 37.3332 6.83852 36.8706C7.03635 35.6224 7.24231 34.3751 7.44286 33.1269C7.46905 32.9658 7.49435 32.8028 7.49525 32.6399C7.49887 32.1384 7.92073 31.7519 8.41667 31.808C8.45732 31.8126 8.50159 31.8117 8.53772 31.828C9.27485 32.1611 10.0608 31.9701 10.8214 32.0398C10.9659 32.0533 11.1141 32.009 11.2613 32.0027C11.6687 31.9864 12.0771 31.9764 12.4854 31.9628C12.8539 31.9502 13.2306 31.9809 13.5884 31.9121C14.4881 31.7383 15.3689 31.856 16.2532 32.0045C16.6318 32.0678 17.0139 32.1158 17.4258 32.1746C17.4827 31.8035 17.5342 31.4415 17.5956 31.0812C17.8142 29.8031 18.2433 28.5866 18.6977 27.3809C18.9723 26.6522 19.4123 26.0141 19.9136 25.4212C20.2316 25.0446 20.5532 24.6717 20.8784 24.3015C21.8522 23.1909 23.0573 22.7048 24.5307 22.9564C25.0474 23.0451 25.5641 23.1384 26.079 23.2416C26.7032 23.3674 27.2488 23.6643 27.7403 24.0607C27.9128 24.2001 28.0962 24.3223 28.1504 24.5848C28.1784 24.7224 28.3672 24.8265 28.4828 24.946L28.5506 24.9125C28.528 24.5486 28.5271 24.182 28.4774 23.8227C28.2425 22.1264 28.4377 20.4455 28.6138 18.7601C28.9237 15.8029 29.2796 12.8475 29.1892 9.86231C29.1757 9.41515 29.2579 8.96167 29.332 8.51723C29.4151 8.01939 29.846 7.84741 30.2498 8.14973C30.5244 8.35521 30.7647 8.60775 31.023 8.83494C31.4485 9.20787 31.874 9.5808 32.304 9.9483C32.7222 10.3058 33.1541 10.6462 33.5651 11.011C34.8849 12.1813 35.7729 13.6432 36.4007 15.277C36.4206 15.3286 36.4459 15.3784 36.4865 15.4698C36.538 15.4019 36.5669 15.3512 36.6058 15.3123C37.0638 14.8534 37.491 14.3574 37.9888 13.9482C38.9256 13.1779 39.8253 12.3615 40.8488 11.6953C41.707 11.1359 42.5037 10.4851 43.3457 9.90032C43.7549 9.6161 44.2048 9.39072 44.6375 9.14089C44.9428 8.96438 45.2508 8.79421 45.5553 8.6177C45.6691 8.55253 45.7748 8.47288 45.8895 8.40952C46.4116 8.11805 46.7441 8.21762 47.0151 8.74895C47.4207 9.54459 47.6827 10.3873 47.8687 11.2608C48.1976 12.8041 48.296 14.361 48.0241 15.9133C47.7766 17.3281 47.4668 18.7338 46.9573 20.0852C46.8272 20.4301 46.7314 20.7895 46.6483 21.1488C46.4866 21.8494 46.2472 22.5201 45.9094 23.1538C45.4694 23.9784 45.0232 24.8003 44.5887 25.6276C44.4216 25.9453 44.2788 26.2757 44.1623 26.6359C44.2129 26.6079 44.2662 26.5843 44.3132 26.5508C44.9283 26.1137 45.5363 25.6647 46.1605 25.2411C46.4848 25.0211 46.8245 24.812 47.1822 24.6554C48.1714 24.2219 49.1054 23.6987 49.9699 23.0497C50.1732 22.8976 50.3882 22.7582 50.6068 22.6297C51.0124 22.3916 51.3421 22.4957 51.5228 22.9284C51.8417 23.6941 52.1479 24.4644 52.4551 25.2347C52.7676 26.0204 53.1019 26.798 53.3792 27.5963C53.8923 29.0772 54.3711 30.5689 54.8598 32.0579C54.905 32.1964 54.9248 32.3466 54.9366 32.4933C54.9727 32.9359 54.7071 33.2156 54.2663 33.1522C53.8878 33.0979 53.502 33.0192 53.147 32.8816C52.3683 32.5783 51.6068 32.2317 50.8381 31.9022C50.3195 31.6795 49.8019 31.4568 49.2617 31.2242C49.1678 31.6315 49.0973 32.0081 48.9934 32.3747C48.6899 33.4482 48.1398 34.4077 47.5128 35.3101C46.548 36.6978 45.558 38.0664 44.3141 39.2358C43.1271 40.351 41.8768 41.3313 40.3709 42.0065C38.8452 42.6909 37.2634 43.0792 35.6229 43.2964C35.1595 43.358 34.7105 43.2901 34.2616 43.167C33.9237 43.0746 33.5741 43.0049 33.2254 42.9733C32.7548 42.9298 32.3392 42.7624 31.8966 42.4618L31.8957 42.46ZM32.0745 41.3865C32.4278 41.5286 32.7331 41.7015 33.061 41.7739C33.6518 41.9034 34.2543 41.9812 34.8542 42.06C35.0791 42.0889 35.3158 42.0871 35.5398 42.0509C37.0556 41.8056 38.5326 41.4544 39.9445 40.7982C41.155 40.236 42.2038 39.4866 43.1984 38.6149C44.5625 37.4192 45.6519 35.9908 46.7359 34.5561C47.4785 33.5731 48.0937 32.5231 48.2472 31.2659C48.268 31.0948 48.2707 30.9219 48.2852 30.7019C48.2798 30.7065 48.3412 30.6793 48.3764 30.6331C48.651 30.2702 48.8805 30.1769 49.2988 30.3335C49.9203 30.5644 50.5363 30.8133 51.1461 31.0731C51.8923 31.3917 52.6276 31.7356 53.3738 32.0561C53.5951 32.1511 53.8345 32.2027 54.1371 32.2968C53.2554 29.2347 51.9718 26.4042 50.848 23.4742C50.5978 23.6579 50.3764 23.8109 50.166 23.9766C49.4397 24.5486 48.6511 25.0093 47.8154 25.4049C47.3674 25.6167 46.9573 25.9118 46.5345 26.1761C45.819 26.6242 45.1126 27.0858 44.3917 27.5239C44.0973 27.7031 43.7693 27.7764 43.4676 27.6126C43.2291 27.8362 43.0196 28.0552 42.7865 28.2453C42.4956 28.4816 42.174 28.4653 41.9699 28.2326C41.7684 28.0027 41.7937 27.6751 42.0503 27.4117C42.5986 26.8496 43.0774 26.2449 43.3421 25.49C43.4017 25.3207 43.501 25.1659 43.586 25.0066C44.0358 24.1684 44.5101 23.342 44.9292 22.4894C45.1659 22.0069 45.3267 21.4846 45.4984 20.9723C45.6601 20.4899 45.7685 19.9893 45.9428 19.5123C46.4134 18.226 46.7278 16.8954 46.9654 15.5567C47.2301 14.0632 47.1262 12.557 46.7585 11.0807C46.6248 10.5448 46.4414 10.0207 46.2843 9.50205C45.6411 9.84149 45.0539 10.1501 44.4703 10.4615C44.3619 10.5195 44.2599 10.5901 44.1596 10.6607C42.5823 11.7813 41.0051 12.9019 39.4287 14.0243C38.529 14.6651 37.7006 15.3838 36.9825 16.2274C36.865 16.365 36.7918 16.4854 36.8045 16.6809C36.8253 17.0095 36.5823 17.2539 36.2932 17.1896C36.0945 17.1453 36.0132 17.2322 35.912 17.3589C35.2254 18.2179 34.5308 19.0706 33.8487 19.9323C33.3952 20.5052 32.9824 21.1117 32.5082 21.6657C31.2959 23.0823 30.4033 24.7115 29.4241 26.282C29.2922 26.4929 29.117 26.5952 28.8893 26.5002C28.7285 26.4332 28.5452 26.3372 28.453 26.1996C28.1359 25.7271 27.6463 25.3705 27.4955 24.7849C27.4828 24.7369 27.4286 24.6925 27.3843 24.6609C26.9805 24.3712 26.5496 24.1286 26.0519 24.0589C25.378 23.9648 24.7014 23.8842 24.0248 23.8154C23.1368 23.7258 22.3987 24.0562 21.7899 24.6844C21.4475 25.0383 21.1124 25.4031 20.8161 25.795C20.4701 26.2512 20.1702 26.7427 19.8495 27.217C19.7284 27.3963 19.742 27.5339 19.9326 27.666C20.1205 27.7964 20.293 27.9511 20.4638 28.1041C21.0238 28.6083 21.5984 29.098 22.1314 29.6302C22.4069 29.9054 22.6137 30.2512 22.8396 30.5734C22.976 30.768 22.995 30.9789 22.8757 31.2016C22.8423 31.264 22.8495 31.3699 22.8757 31.4415C22.9986 31.7718 23.1458 32.0923 23.2605 32.4254C23.3093 32.5657 23.3762 32.6209 23.5189 32.6308C23.9363 32.6598 24.3545 32.6833 24.7691 32.7367C26.2506 32.9277 27.7312 33.1079 29.229 33.1024C29.3428 33.1024 29.4584 33.1187 29.5723 33.1341C31.0104 33.3224 32.4404 33.5804 33.9011 33.5541C34.3429 33.546 34.5859 33.8736 34.5145 34.3145C34.491 34.4602 34.4477 34.6023 34.4115 34.7453C34.3447 35.0078 34.2525 35.2667 34.2128 35.5328C34.0755 36.4633 33.734 37.3187 33.3266 38.1587C32.9616 38.9118 32.6274 39.6803 32.3076 40.4533C32.1911 40.7357 32.154 41.0507 32.0727 41.3829L32.0745 41.3865ZM29.3464 46.9135C29.3636 46.8754 29.3898 46.8329 29.4033 46.7867C29.6798 45.8408 29.9571 44.8958 30.2254 43.9481C30.2498 43.863 30.1775 43.7499 30.2037 43.6675C30.3383 43.2394 30.5018 42.8212 30.6346 42.3922C31.1477 40.7348 31.7557 39.1145 32.5118 37.5513C32.669 37.2264 32.8334 36.8987 32.9336 36.5547C33.1107 35.9465 33.2408 35.3237 33.3998 34.6729C33.0682 34.6729 32.7503 34.5833 32.5262 34.6901C31.8469 35.0141 31.1902 35.3907 30.5506 35.7899C29.8162 36.2479 29.0537 36.638 28.2498 36.9557C27.7854 37.1395 27.3338 37.3576 26.8812 37.5694C26.4584 37.7668 26.0474 37.9912 25.6201 38.1759C25.3184 38.3062 25.1205 38.566 24.7962 38.6882C23.0501 39.3435 21.4096 40.2324 19.761 41.096C18.966 41.5123 18.1376 41.7911 17.2632 41.9513C16.8142 42.0337 16.5026 41.8681 16.2894 41.4653C16.1783 41.2553 16.0762 41.0353 15.9307 40.8507C15.2397 39.9726 14.5568 39.0838 13.545 38.5352C13.452 38.4845 13.3716 38.4121 13.2875 38.3461C12.3336 37.5957 11.3679 36.8589 10.4302 36.0886C9.84216 35.6052 9.29383 35.0712 8.73104 34.557C8.61902 34.4548 8.52236 34.3362 8.38234 34.1859C8.25136 34.8711 8.11405 35.502 8.01378 36.1393C7.87376 37.0227 7.84124 37.9315 7.62082 38.7923C7.24051 40.2786 6.74999 41.7359 6.30734 43.2059C6.27302 43.319 6.24321 43.4331 6.21882 43.5218C6.93156 43.6558 7.6154 43.7825 8.29833 43.9137C8.70032 43.9916 9.0978 44.1219 9.5034 44.1527C10.6714 44.2414 11.8431 44.3011 12.9976 44.5111C14.0373 44.7003 15.0744 44.9067 16.1078 45.1267C17.181 45.3557 18.2189 45.7485 19.3274 45.8073C20.0636 45.8472 20.8034 45.8644 21.536 45.9431C22.1765 46.0119 22.8089 46.011 23.4502 45.9685C23.9037 45.9386 24.3681 45.9676 24.8197 46.0255C25.3057 46.0879 25.7809 46.2735 26.266 46.3034C27.3157 46.3676 28.3049 46.6863 29.3491 46.9135H29.3464ZM9.02011 33.1721C9.21162 33.4029 9.34622 33.6129 9.52599 33.7732C10.124 34.3081 10.7229 34.8458 11.3499 35.3463C12.592 36.3384 13.8548 37.3042 15.1051 38.2863C15.2659 38.4121 15.4176 38.557 15.545 38.7154C16.0699 39.3662 16.5812 40.0279 17.1051 40.6787C17.153 40.7384 17.2731 40.8 17.3346 40.78C17.8847 40.6008 18.4538 40.4542 18.9705 40.2016C20.5541 39.4286 22.0934 38.5642 23.7447 37.9324C24.1729 37.7686 24.5903 37.5749 25.004 37.3793C25.9137 36.9485 26.7963 36.4488 27.7321 36.0859C28.8469 35.6532 29.8803 35.073 30.9345 34.5263C30.9426 34.5217 30.9399 34.4982 30.9517 34.4285C30.1423 34.3597 29.3374 34.2864 28.5325 34.223C27.6021 34.1497 26.6707 34.0755 25.7384 34.0221C24.7818 33.9678 23.8468 33.5668 22.8793 33.8148C22.7863 33.7315 22.6887 33.6428 22.5803 33.6265C22.0139 33.5442 21.4448 33.4799 20.8757 33.4084C20.5776 33.3713 20.2677 33.3586 20.1151 33.0626C19.7844 33.2527 19.48 33.4473 19.1584 33.6084C18.8305 33.7732 18.4927 33.9252 18.1467 34.0483C17.6833 34.2131 17.3969 34.0311 17.3273 33.5423C17.3084 33.4075 17.256 33.3622 17.1331 33.345C16.8007 33.297 16.4682 33.2464 16.1376 33.1857C15.2876 33.0291 14.4447 32.9467 13.5739 33.0907C13.0409 33.1785 12.4745 33.0536 11.9343 33.1178C11.2044 33.2047 10.4799 33.1875 9.75092 33.1739C9.5305 33.1694 9.31099 33.1739 9.02011 33.1739V33.1721ZM28.9959 25.3995L29.0673 25.4293C29.2579 25.1904 29.4602 24.9596 29.6364 24.7106C30.2046 23.9069 30.7575 23.0931 31.3275 22.2902C31.6599 21.8223 32.0411 21.3869 32.3537 20.9062C33.3582 19.3647 34.4612 17.8966 35.5904 16.4456C35.6401 16.3822 35.6663 16.2573 35.6392 16.184C35.454 15.6843 35.2742 15.1811 35.0511 14.6977C34.3402 13.158 33.2435 11.9369 31.9192 10.896C31.3537 10.4516 30.8379 9.94287 30.2986 9.46494C30.2588 9.42964 30.2154 9.39796 30.1034 9.30925C30.1034 9.58714 30.107 9.79713 30.1034 10.008C30.0808 11.24 30.1278 12.4782 30.0149 13.7011C29.8315 15.6861 29.5533 17.6639 29.2949 19.6417C29.1296 20.9126 28.9327 22.1771 29.0086 23.4669C29.0402 23.9983 29.0022 24.5332 28.9968 25.0664C28.9959 25.1768 28.9968 25.2872 28.9968 25.3986L28.9959 25.3995ZM21.9371 30.7997C21.1874 29.8846 20.3048 29.1903 19.3924 28.5087C18.9163 29.966 18.5062 31.4134 18.4339 32.9766C19.7375 32.4489 20.6661 31.3944 21.9362 30.7997H21.9371ZM22.5559 32.4371C22.4755 32.1511 22.3969 31.8687 22.3048 31.5401C21.8152 31.8433 21.3725 32.1185 20.929 32.3937L20.9462 32.4371H22.5559Z" fill="#808080"/>
<path d="M31.8957 42.46C31.7773 43.0493 31.6572 43.5906 31.5614 44.1364C31.4223 44.9275 31.341 45.7304 31.0447 46.488C30.8948 46.8727 30.7159 46.9985 30.3211 46.9279C30.2516 47.0945 30.1865 47.2692 30.108 47.4375C29.8794 47.9272 29.519 48.0594 29.0176 47.8675C28.8144 47.7897 28.5948 47.7435 28.3789 47.71C27.4006 47.5597 26.4114 47.4647 25.4448 47.2601C24.6156 47.0845 23.8044 46.9967 22.9588 47.0927C22.4927 47.1461 22.0112 47.0728 21.5379 47.0465C21.0799 47.0212 20.621 46.9488 20.1648 46.9587C19.0536 46.9813 17.9814 46.7922 16.91 46.5143C15.7998 46.2255 14.6823 45.9449 13.5522 45.7576C12.5125 45.5856 11.4537 45.4996 10.3995 45.4525C9.36429 45.4064 8.37512 45.1574 7.37149 44.9511C6.82948 44.8397 6.27031 44.7936 5.71655 44.7637C5.22965 44.7374 4.9469 44.4958 5.00832 44.0079C5.0562 43.6286 5.1637 43.2548 5.2721 42.8864C5.72559 41.3431 6.20436 39.807 6.63887 38.2592C6.76444 37.8129 6.76534 37.3332 6.83852 36.8706C7.03635 35.6224 7.24231 34.3751 7.44286 33.1269C7.46905 32.9658 7.49435 32.8028 7.49525 32.6399C7.49887 32.1384 7.92073 31.7519 8.41667 31.808C8.45732 31.8126 8.50159 31.8117 8.53772 31.828C9.27485 32.1611 10.0608 31.9701 10.8214 32.0398C10.9659 32.0533 11.1141 32.009 11.2613 32.0027C11.6687 31.9864 12.0771 31.9764 12.4854 31.9628C12.8539 31.9502 13.2306 31.9809 13.5884 31.9121C14.4881 31.7383 15.3689 31.856 16.2532 32.0045C16.6318 32.0678 17.0139 32.1158 17.4258 32.1746C17.4827 31.8035 17.5342 31.4415 17.5956 31.0812C17.8142 29.8031 18.2433 28.5866 18.6977 27.3809C18.9723 26.6522 19.4123 26.0141 19.9136 25.4212C20.2316 25.0446 20.5532 24.6717 20.8784 24.3015C21.8522 23.1909 23.0573 22.7048 24.5307 22.9564C25.0474 23.0451 25.5641 23.1384 26.079 23.2416C26.7032 23.3674 27.2488 23.6643 27.7403 24.0607C27.9128 24.2001 28.0962 24.3223 28.1504 24.5848C28.1784 24.7224 28.3672 24.8265 28.4828 24.946L28.5506 24.9125C28.528 24.5486 28.5271 24.182 28.4774 23.8227C28.2425 22.1264 28.4377 20.4455 28.6138 18.7601C28.9237 15.8029 29.2796 12.8475 29.1892 9.86231C29.1757 9.41515 29.2579 8.96167 29.332 8.51723C29.4151 8.01939 29.846 7.84741 30.2498 8.14973C30.5244 8.35521 30.7647 8.60775 31.023 8.83494C31.4485 9.20787 31.874 9.5808 32.304 9.9483C32.7222 10.3058 33.1541 10.6462 33.5651 11.011C34.8849 12.1813 35.7729 13.6432 36.4007 15.277C36.4206 15.3286 36.4459 15.3784 36.4865 15.4698C36.538 15.4019 36.5669 15.3512 36.6058 15.3123C37.0638 14.8534 37.491 14.3574 37.9888 13.9482C38.9256 13.1779 39.8253 12.3615 40.8488 11.6953C41.707 11.1359 42.5037 10.4851 43.3457 9.90032C43.7549 9.6161 44.2048 9.39072 44.6375 9.14089C44.9428 8.96438 45.2508 8.79421 45.5553 8.6177C45.6691 8.55253 45.7748 8.47288 45.8895 8.40952C46.4116 8.11805 46.7441 8.21762 47.0151 8.74895C47.4207 9.54459 47.6827 10.3873 47.8687 11.2608C48.1976 12.8041 48.296 14.361 48.0241 15.9133C47.7766 17.3281 47.4668 18.7338 46.9573 20.0852C46.8272 20.4301 46.7314 20.7895 46.6483 21.1488C46.4866 21.8494 46.2472 22.5201 45.9094 23.1538C45.4694 23.9784 45.0232 24.8003 44.5887 25.6276C44.4216 25.9453 44.2788 26.2757 44.1623 26.6359C44.2129 26.6079 44.2662 26.5843 44.3132 26.5508C44.9283 26.1137 45.5363 25.6647 46.1605 25.2411C46.4848 25.0211 46.8245 24.812 47.1822 24.6554C48.1714 24.2219 49.1054 23.6987 49.9699 23.0497C50.1732 22.8976 50.3882 22.7582 50.6068 22.6297C51.0124 22.3916 51.3421 22.4957 51.5228 22.9284C51.8417 23.6941 52.1479 24.4644 52.4551 25.2347C52.7676 26.0204 53.1019 26.798 53.3792 27.5963C53.8923 29.0772 54.3711 30.5689 54.8598 32.0579C54.905 32.1964 54.9248 32.3466 54.9366 32.4933C54.9727 32.9359 54.7071 33.2156 54.2663 33.1522C53.8878 33.0979 53.502 33.0192 53.147 32.8816C52.3683 32.5783 51.6068 32.2317 50.8381 31.9022C50.3195 31.6795 49.8019 31.4568 49.2617 31.2242C49.1678 31.6315 49.0973 32.0081 48.9934 32.3747C48.6899 33.4482 48.1398 34.4077 47.5128 35.3101C46.548 36.6978 45.558 38.0664 44.3141 39.2358C43.1271 40.351 41.8768 41.3313 40.3709 42.0065C38.8452 42.6909 37.2634 43.0792 35.6229 43.2964C35.1595 43.358 34.7105 43.2901 34.2616 43.167C33.9237 43.0746 33.5741 43.0049 33.2254 42.9733C32.7548 42.9298 32.3392 42.7624 31.8966 42.4618L31.8957 42.46ZM32.0745 41.3865C32.4278 41.5286 32.7331 41.7015 33.061 41.7739C33.6518 41.9034 34.2543 41.9812 34.8542 42.06C35.0791 42.0889 35.3158 42.0871 35.5398 42.0509C37.0556 41.8056 38.5326 41.4544 39.9445 40.7982C41.155 40.236 42.2038 39.4866 43.1984 38.6149C44.5625 37.4192 45.6519 35.9908 46.7359 34.5561C47.4785 33.5731 48.0937 32.5231 48.2472 31.2659C48.268 31.0948 48.2707 30.9219 48.2852 30.7019C48.2798 30.7065 48.3412 30.6793 48.3764 30.6331C48.651 30.2702 48.8805 30.1769 49.2988 30.3335C49.9203 30.5644 50.5363 30.8133 51.1461 31.0731C51.8923 31.3917 52.6276 31.7356 53.3738 32.0561C53.5951 32.1511 53.8345 32.2027 54.1371 32.2968C53.2554 29.2347 51.9718 26.4042 50.848 23.4742C50.5978 23.6579 50.3764 23.8109 50.166 23.9766C49.4397 24.5486 48.6511 25.0093 47.8154 25.4049C47.3674 25.6167 46.9573 25.9118 46.5345 26.1761C45.819 26.6242 45.1126 27.0858 44.3917 27.5239C44.0973 27.7031 43.7693 27.7764 43.4676 27.6126C43.2291 27.8362 43.0196 28.0552 42.7865 28.2453C42.4956 28.4816 42.174 28.4653 41.9699 28.2326C41.7684 28.0027 41.7937 27.6751 42.0503 27.4117C42.5986 26.8496 43.0774 26.2449 43.3421 25.49C43.4017 25.3207 43.501 25.1659 43.586 25.0066C44.0358 24.1684 44.5101 23.342 44.9292 22.4894C45.1659 22.0069 45.3267 21.4846 45.4984 20.9723C45.6601 20.4899 45.7685 19.9893 45.9428 19.5123C46.4134 18.226 46.7278 16.8954 46.9654 15.5567C47.2301 14.0632 47.1262 12.557 46.7585 11.0807C46.6248 10.5448 46.4414 10.0207 46.2843 9.50205C45.6411 9.84149 45.0539 10.1501 44.4703 10.4615C44.3619 10.5195 44.2599 10.5901 44.1596 10.6607C42.5823 11.7813 41.0051 12.9019 39.4287 14.0243C38.529 14.6651 37.7006 15.3838 36.9825 16.2274C36.865 16.365 36.7918 16.4854 36.8045 16.6809C36.8253 17.0095 36.5823 17.2539 36.2932 17.1896C36.0945 17.1453 36.0132 17.2322 35.912 17.3589C35.2254 18.2179 34.5308 19.0706 33.8487 19.9323C33.3952 20.5052 32.9824 21.1117 32.5082 21.6657C31.2959 23.0823 30.4033 24.7115 29.4241 26.282C29.2922 26.4929 29.117 26.5952 28.8893 26.5002C28.7285 26.4332 28.5452 26.3372 28.453 26.1996C28.1359 25.7271 27.6463 25.3705 27.4955 24.7849C27.4828 24.7369 27.4286 24.6925 27.3843 24.6609C26.9805 24.3712 26.5496 24.1286 26.0519 24.0589C25.378 23.9648 24.7014 23.8842 24.0248 23.8154C23.1368 23.7258 22.3987 24.0562 21.7899 24.6844C21.4475 25.0383 21.1124 25.4031 20.8161 25.795C20.4701 26.2512 20.1702 26.7427 19.8495 27.217C19.7284 27.3963 19.742 27.5339 19.9326 27.666C20.1205 27.7964 20.293 27.9511 20.4638 28.1041C21.0238 28.6083 21.5984 29.098 22.1314 29.6302C22.4069 29.9054 22.6137 30.2512 22.8396 30.5734C22.976 30.768 22.995 30.9789 22.8757 31.2016C22.8423 31.264 22.8495 31.3699 22.8757 31.4415C22.9986 31.7718 23.1458 32.0923 23.2605 32.4254C23.3093 32.5657 23.3762 32.6209 23.5189 32.6308C23.9363 32.6598 24.3545 32.6833 24.7691 32.7367C26.2506 32.9277 27.7312 33.1079 29.229 33.1024C29.3428 33.1024 29.4584 33.1187 29.5723 33.1341C31.0104 33.3224 32.4404 33.5804 33.9011 33.5541C34.3429 33.546 34.5859 33.8736 34.5145 34.3145C34.491 34.4602 34.4477 34.6023 34.4115 34.7453C34.3447 35.0078 34.2525 35.2667 34.2128 35.5328C34.0755 36.4633 33.734 37.3187 33.3266 38.1587C32.9616 38.9118 32.6274 39.6803 32.3076 40.4533C32.1911 40.7357 32.154 41.0507 32.0727 41.3829L32.0745 41.3865ZM29.3464 46.9135C29.3636 46.8754 29.3898 46.8329 29.4033 46.7867C29.6798 45.8408 29.9571 44.8958 30.2254 43.9481C30.2498 43.863 30.1775 43.7499 30.2037 43.6675C30.3383 43.2394 30.5018 42.8212 30.6346 42.3922C31.1477 40.7348 31.7557 39.1145 32.5118 37.5513C32.669 37.2264 32.8334 36.8987 32.9336 36.5547C33.1107 35.9465 33.2408 35.3237 33.3998 34.6729C33.0682 34.6729 32.7503 34.5833 32.5262 34.6901C31.8469 35.0141 31.1902 35.3907 30.5506 35.7899C29.8162 36.2479 29.0537 36.638 28.2498 36.9557C27.7854 37.1395 27.3338 37.3576 26.8812 37.5694C26.4584 37.7668 26.0474 37.9912 25.6201 38.1759C25.3184 38.3062 25.1205 38.566 24.7962 38.6882C23.0501 39.3435 21.4096 40.2324 19.761 41.096C18.966 41.5123 18.1376 41.7911 17.2632 41.9513C16.8142 42.0337 16.5026 41.8681 16.2894 41.4653C16.1783 41.2553 16.0762 41.0353 15.9307 40.8507C15.2397 39.9726 14.5568 39.0838 13.545 38.5352C13.452 38.4845 13.3716 38.4121 13.2875 38.3461C12.3336 37.5957 11.3679 36.8589 10.4302 36.0886C9.84216 35.6052 9.29383 35.0712 8.73104 34.557C8.61902 34.4548 8.52236 34.3362 8.38234 34.1859C8.25136 34.8711 8.11405 35.502 8.01378 36.1393C7.87376 37.0227 7.84124 37.9315 7.62082 38.7923C7.24051 40.2786 6.74999 41.7359 6.30734 43.2059C6.27302 43.319 6.24321 43.4331 6.21882 43.5218C6.93156 43.6558 7.6154 43.7825 8.29833 43.9137C8.70032 43.9916 9.0978 44.1219 9.5034 44.1527C10.6714 44.2414 11.8431 44.3011 12.9976 44.5111C14.0373 44.7003 15.0744 44.9067 16.1078 45.1267C17.181 45.3557 18.2189 45.7485 19.3274 45.8073C20.0636 45.8472 20.8034 45.8644 21.536 45.9431C22.1765 46.0119 22.8089 46.011 23.4502 45.9685C23.9037 45.9386 24.3681 45.9676 24.8197 46.0255C25.3057 46.0879 25.7809 46.2735 26.266 46.3034C27.3157 46.3676 28.3049 46.6863 29.3491 46.9135H29.3464ZM9.02011 33.1721C9.21162 33.4029 9.34622 33.6129 9.52599 33.7732C10.124 34.3081 10.7229 34.8458 11.3499 35.3463C12.592 36.3384 13.8548 37.3042 15.1051 38.2863C15.2659 38.4121 15.4176 38.557 15.545 38.7154C16.0699 39.3662 16.5812 40.0279 17.1051 40.6787C17.153 40.7384 17.2731 40.8 17.3346 40.78C17.8847 40.6008 18.4538 40.4542 18.9705 40.2016C20.5541 39.4286 22.0934 38.5642 23.7447 37.9324C24.1729 37.7686 24.5903 37.5749 25.004 37.3793C25.9137 36.9485 26.7963 36.4488 27.7321 36.0859C28.8469 35.6532 29.8803 35.073 30.9345 34.5263C30.9426 34.5217 30.9399 34.4982 30.9517 34.4285C30.1423 34.3597 29.3374 34.2864 28.5325 34.223C27.6021 34.1497 26.6707 34.0755 25.7384 34.0221C24.7818 33.9678 23.8468 33.5668 22.8793 33.8148C22.7863 33.7315 22.6887 33.6428 22.5803 33.6265C22.0139 33.5442 21.4448 33.4799 20.8757 33.4084C20.5776 33.3713 20.2677 33.3586 20.1151 33.0626C19.7844 33.2527 19.48 33.4473 19.1584 33.6084C18.8305 33.7732 18.4927 33.9252 18.1467 34.0483C17.6833 34.2131 17.3969 34.0311 17.3273 33.5423C17.3084 33.4075 17.256 33.3622 17.1331 33.345C16.8007 33.297 16.4682 33.2464 16.1376 33.1857C15.2876 33.0291 14.4447 32.9467 13.5739 33.0907C13.0409 33.1785 12.4745 33.0536 11.9343 33.1178C11.2044 33.2047 10.4799 33.1875 9.75092 33.1739C9.5305 33.1694 9.31099 33.1739 9.02011 33.1739V33.1721ZM28.9959 25.3995L29.0673 25.4293C29.2579 25.1904 29.4602 24.9596 29.6364 24.7106C30.2046 23.9069 30.7575 23.0931 31.3275 22.2902C31.6599 21.8223 32.0411 21.3869 32.3537 20.9062C33.3582 19.3647 34.4612 17.8966 35.5904 16.4456C35.6401 16.3822 35.6663 16.2573 35.6392 16.184C35.454 15.6843 35.2742 15.1811 35.0511 14.6977C34.3402 13.158 33.2435 11.9369 31.9192 10.896C31.3537 10.4516 30.8379 9.94287 30.2986 9.46494C30.2588 9.42964 30.2154 9.39796 30.1034 9.30925C30.1034 9.58714 30.107 9.79713 30.1034 10.008C30.0808 11.24 30.1278 12.4782 30.0149 13.7011C29.8315 15.6861 29.5533 17.6639 29.2949 19.6417C29.1296 20.9126 28.9327 22.1771 29.0086 23.4669C29.0402 23.9983 29.0022 24.5332 28.9968 25.0664C28.9959 25.1768 28.9968 25.2872 28.9968 25.3986L28.9959 25.3995ZM21.9371 30.7997C21.1874 29.8846 20.3048 29.1903 19.3924 28.5087C18.9163 29.966 18.5062 31.4134 18.4339 32.9766C19.7375 32.4489 20.6661 31.3944 21.9362 30.7997H21.9371ZM22.5559 32.4371C22.4755 32.1511 22.3969 31.8687 22.3048 31.5401C21.8152 31.8433 21.3725 32.1185 20.929 32.3937L20.9462 32.4371H22.5559Z" stroke="black" stroke-width="0.24" mask="url(#path-2-outside-1_729_4225)"/>
<path d="M23.4287 26.0859L23.5254 26.1045C23.7417 26.1657 23.9028 26.3429 23.9541 26.5781L23.9668 26.6816L23.9795 26.6875L23.9697 26.7061C23.9701 26.7091 23.9713 26.712 23.9717 26.7148H23.9658L23.959 26.7314L24.0068 26.7725C23.9521 26.8615 23.9056 26.9497 23.8506 27.0439C23.8237 27.0899 23.7954 27.1365 23.7646 27.1816L23.6631 27.3125C23.5822 27.4043 23.4649 27.4355 23.3535 27.4219C23.2702 27.4116 23.1872 27.3762 23.1191 27.3203L23.0566 27.2578C23.027 27.2215 23.0028 27.188 22.9785 27.1572L22.8994 27.0732C22.7855 26.9773 22.7091 26.8769 22.6826 26.7656C22.6557 26.6524 22.6835 26.5391 22.7539 26.4229L22.8115 26.3418C22.9607 26.1644 23.2044 26.0596 23.4287 26.0859Z" fill="#808080" stroke="black" stroke-width="0.12"/>
</svg>
