<svg width="60" height="60" viewBox="0 0 60 60" fill="none" xmlns="http://www.w3.org/2000/svg">
<rect width="60" height="60" rx="14" fill="white" fill-opacity="0.6"/>
<path d="M15.8389 33.4573C15.3809 32.831 14.9102 32.2277 14.4853 31.5937C13.8357 30.6241 13.3042 29.5944 13.1684 28.4057C13.0137 27.0609 13.4983 25.9875 14.5601 25.1832C15.509 24.4634 16.6026 24.0804 17.7722 24.0496C21.2736 23.9587 24.5123 24.8399 27.4225 26.8534C27.6027 26.9776 27.7765 27.1121 27.9554 27.2402C27.9731 27.253 27.9972 27.2556 28.0606 27.2761C28.0188 27.1749 27.996 27.0942 27.9554 27.025C27.5697 26.3782 27.1511 25.7493 26.7984 25.0846C26.2453 24.042 25.7505 22.9661 25.1999 21.9209C24.8079 21.1755 24.355 20.4633 23.9491 19.7243C23.8362 19.5181 23.7157 19.2632 23.7372 19.0454C23.8095 18.309 23.8108 17.5225 24.081 16.8552C24.6291 15.5001 24.8612 14.0835 25.0756 12.6656C25.3331 10.9596 25.7023 9.28808 26.1958 7.63709C26.4279 6.86218 26.4888 6.03733 26.6753 5.24706C26.9519 4.08406 27.2754 2.93132 27.5697 1.77217C27.6636 1.40201 27.746 1.02672 27.8107 0.650158C27.8666 0.327389 27.9718 0.0507296 28.3321 0.00590058C28.6747 -0.0363668 28.9411 0.151915 29.0286 0.459314C29.1402 0.85381 29.2405 1.28289 29.2037 1.68251C29.139 2.3844 28.9702 3.07861 28.8383 3.7741C28.6873 4.57334 28.5415 5.37386 28.3702 6.16797C28.1647 7.12091 27.9274 8.06617 27.7143 9.01782C27.4872 10.0361 27.2462 11.0531 27.0572 12.0803C26.7895 13.5289 26.565 14.9865 26.3112 16.5043C26.5637 16.5478 26.8618 16.6362 27.1612 16.6426C28.5021 16.6759 29.8202 16.836 31.1117 17.2215C31.3933 17.3061 31.7079 17.3483 31.9971 17.3189C33.7047 17.1408 35.3716 17.3983 37.0348 17.7364C37.1896 17.7685 37.3456 17.7941 37.541 17.8287C37.5892 17.438 37.6615 17.0845 37.6729 16.7284C37.7807 13.1972 38.6167 9.78248 39.2726 6.33704C39.5365 4.9499 39.6253 3.52818 39.7889 2.12183C39.8169 1.87976 39.8054 1.63255 39.8359 1.39048C39.9031 0.848687 40.2938 0.487493 40.7747 0.506705C41.2504 0.525918 41.6487 0.911447 41.6373 1.4622C41.6183 2.36647 41.6107 3.28355 41.4584 4.16988C40.984 6.92879 40.4093 9.66976 39.9412 12.4287C39.6989 13.8581 39.6291 15.3169 39.4312 16.7553C39.2891 17.7902 39.0836 18.8162 38.8654 19.8383C38.8172 20.0675 38.6358 20.2981 38.4556 20.462C37.6957 21.1524 36.8978 21.8005 36.1442 22.4986C35.6799 22.9289 35.2664 23.4169 34.8401 23.8883C33.6539 25.2024 32.4868 26.5345 31.2855 27.8332C30.8668 28.2866 30.4304 28.7541 29.7695 28.8758C29.6832 28.8925 29.621 29.0423 29.5335 29.059C29.3724 29.091 29.1377 29.1422 29.0451 29.059C28.7241 28.7733 28.6709 28.7503 28.4691 28.986C28.2509 28.8617 28.0543 28.7452 27.8526 28.6363C27.4568 28.4237 27.0483 28.2328 26.6639 28.001C24.4032 26.6382 21.9485 25.8671 19.3478 25.5457C18.4281 25.4317 17.5084 25.4381 16.6127 25.7263C16.373 25.8031 16.1345 25.8966 15.9086 26.0093C14.7301 26.6049 14.2861 27.5425 14.7073 28.8054C14.9458 29.5226 15.3162 30.2092 15.7171 30.8521C16.0951 31.458 16.5988 31.9831 17.0326 32.5544C17.195 32.7683 17.351 32.7823 17.5908 32.6876C19.8743 31.7846 22.2327 31.4618 24.6709 31.7795C26.65 32.0382 28.5275 32.6555 30.3568 33.4356C30.7805 33.6162 31.1967 33.8185 31.6229 33.9915C31.7219 34.0312 31.8906 34.0401 31.9604 33.9812C33.248 32.9194 34.8122 32.5672 36.3726 32.1957C38.3161 31.7321 40.1936 31.9895 42.0204 32.7209C44.21 33.597 45.5332 35.3081 46.3997 37.4446C46.8614 38.5832 47.105 39.7667 46.9566 40.9912C46.798 42.304 46.5938 43.6143 46.3515 44.9156C46.1662 45.9096 45.7552 46.8356 45.1323 47.6246C44.2151 48.7863 43.2675 49.9263 42.278 51.0252C41.0271 52.4149 39.3475 52.8696 37.5727 53.0912C34.5813 53.4665 31.6737 53.1181 28.8294 52.137C28.7419 52.1075 28.6556 52.0781 28.5668 52.0512C28.5465 52.0448 28.5212 52.0512 28.4349 52.0512C28.4971 52.2484 28.53 52.4392 28.615 52.6045C29.1834 53.706 29.7111 54.8306 30.5205 55.7899C31.2652 56.6724 31.9033 57.6445 32.8103 58.39C33.2619 58.7614 33.2708 59.3557 32.9308 59.7246C32.5959 60.0871 32.0758 60.0961 31.6242 59.7259C31.3299 59.4838 31.0279 59.2417 30.7805 58.9535C29.3178 57.259 27.911 55.5171 27.0369 53.4229C26.8035 52.8645 26.6944 52.2433 26.603 51.6387C26.5561 51.3262 26.4381 51.184 26.1704 51.0624C22.0259 49.1629 18.4915 46.445 15.5572 42.9342C14.7301 41.9454 13.9994 40.8823 13.511 39.6771C13.3029 39.1647 13.1291 38.6229 13.0479 38.0786C12.8247 36.5659 13.3917 35.3414 14.536 34.3834C14.9407 34.044 15.3936 33.7647 15.8338 33.4522L15.8389 33.4573ZM28.8053 42.1708C28.7876 42.2016 28.7711 42.2208 28.766 42.2426C28.1609 44.6953 28.1368 47.1917 28.2484 49.6944C28.2535 49.8033 28.3905 49.957 28.5009 50.0005C31.3882 51.1366 34.3606 51.6592 37.4623 51.2698C38.8375 51.0969 40.148 50.7652 41.1172 49.6765C42.0077 48.6749 42.878 47.6528 43.7204 46.6102C44.2354 45.9736 44.5703 45.2192 44.7327 44.4136C44.9433 43.3787 45.1539 42.3386 45.2592 41.2896C45.7019 36.8618 42.519 33.4151 38.1207 33.5739C36.6872 33.6251 35.3082 34.0248 33.9876 34.6037C33.8239 34.6754 33.6742 34.783 33.4763 34.8996C33.6362 34.9854 33.7466 35.0417 33.8544 35.1045C34.6929 35.5886 35.5695 36.0177 36.3586 36.5736C37.0982 37.0949 37.7744 37.7187 38.4227 38.3565C38.887 38.8125 39.1825 39.403 39.3272 40.0562C39.5365 41.0014 39.1661 41.7725 38.2894 42.1644C38.0383 42.2771 37.7719 42.363 37.5042 42.4232C35.4604 42.8791 33.3964 42.9419 31.3273 42.6537C30.4875 42.5371 29.6604 42.3386 28.8053 42.1734V42.1708ZM26.4432 49.0924C26.4432 48.9259 26.4432 48.8004 26.4432 48.6736C26.4584 46.3809 26.5332 44.0934 27.1333 41.8621C27.2018 41.6085 27.0864 41.5458 26.8923 41.4689C24.7166 40.6108 22.6614 39.5131 20.8207 38.0606C19.5724 37.077 18.4116 35.9767 17.2267 34.9136C17.0402 34.7459 16.9058 34.6946 16.6952 34.8368C16.4288 35.0187 16.1383 35.166 15.8769 35.3543C14.6375 36.2496 14.2899 37.2883 14.909 38.6883C15.2946 39.5592 15.783 40.4135 16.3666 41.1628C19.0332 44.5826 22.3862 47.1417 26.2529 49.0335C26.2922 49.0527 26.3379 49.0617 26.4419 49.0937L26.4432 49.0924ZM27.5672 40.0293C28.0251 39.1494 28.4057 38.2848 28.9043 37.4971C29.4066 36.7042 30.0257 35.987 30.6029 35.2236C26.7134 33.4074 22.7515 32.4365 18.4915 34.0619C21.1708 36.6658 24.1483 38.7203 27.5659 40.0293H27.5672ZM37.3329 19.2491C36.7088 19.1838 36.1759 19.1325 35.6431 19.0723C34.5902 18.9532 33.5372 18.8712 32.4805 19.0403C31.7066 19.1646 30.9556 19.0121 30.1906 18.8969C28.7216 18.6753 27.2386 18.5485 25.6439 18.3692C25.715 18.6292 25.7378 18.8405 25.8279 19.016C26.1945 19.7243 26.5992 20.4134 26.957 21.1268C27.2373 21.6852 27.4593 22.2731 27.7295 22.838C27.7828 22.9494 27.93 23.0865 28.0365 23.089C29.4371 23.13 30.797 23.4233 32.1443 23.7717C32.4729 23.8562 32.6391 23.7768 32.8344 23.5322C33.7846 22.3487 34.7817 21.2164 36.0783 20.3852C36.5235 20.0996 36.8775 19.6692 37.3329 19.2491ZM29.2392 40.5595C29.3039 40.598 29.3305 40.6236 29.3622 40.6326C31.9185 41.369 34.4988 41.5317 37.1046 40.9387C37.9368 40.7491 38.0104 40.557 37.574 39.8308C37.1591 39.1417 36.5844 38.5922 35.921 38.1734C34.7716 37.4471 33.5829 36.7862 32.4158 36.0907C32.2344 35.9831 32.1227 36.0369 32.0048 36.1804C31.4783 36.8259 30.9226 37.4471 30.4279 38.117C29.8887 38.8471 29.5196 39.6745 29.2392 40.5608V40.5595Z" fill="#808080"/>
</svg>
