<svg width="60" height="60" viewBox="0 0 60 60" fill="none" xmlns="http://www.w3.org/2000/svg">
<rect width="60" height="60" rx="14" fill="white"/>
<mask id="path-2-outside-1_729_4240" maskUnits="userSpaceOnUse" x="6" y="3.01953" width="47" height="54" fill="black">
<rect fill="white" x="6" y="3.01953" width="47" height="54"/>
<path d="M26.4937 4.01953C26.5546 4.02758 26.6155 4.03964 26.677 4.04367C27.5816 4.10516 28.4878 4.15056 29.3906 4.23158C30.2262 4.30687 31.0612 4.40111 31.891 4.52122C33.6984 4.78327 35.4982 5.10163 37.2222 5.71711C38.5072 6.17569 39.6778 6.87679 40.7174 7.76178C41.6581 8.56287 42.2121 9.60073 42.3563 10.838C42.4362 11.5236 42.2753 12.1781 42.0299 12.8108C41.4167 14.3912 40.3013 15.4417 38.6773 15.9376C38.1917 16.0859 37.7153 16.0336 37.2665 15.7928C37.1717 15.7422 37.0826 15.671 37.0102 15.5917C36.9154 15.4882 36.8958 15.3589 36.9613 15.2273C37.0251 15.0997 37.1395 15.0561 37.2717 15.0538C37.328 15.0526 37.386 15.0658 37.4412 15.0802C37.7877 15.1693 37.9814 15.1043 38.1388 14.7831C38.2877 14.4802 38.4032 14.1596 38.5164 13.8412C38.5968 13.6154 38.5445 13.3861 38.4693 13.166C38.2969 12.6626 37.9814 12.2597 37.5825 11.9178C37.4337 11.7902 37.2579 11.7391 37.0602 11.7448C36.4499 11.7626 35.9126 11.9448 35.4408 12.3522C34.4109 13.2413 33.8455 14.3647 33.6639 15.7008C33.503 16.8852 33.5742 18.0673 33.6966 19.2471C33.8794 21.0114 34.1822 22.7561 34.8069 24.4215C35.3103 25.7633 35.8878 27.077 36.4395 28.401C36.6843 28.9889 36.9291 29.5757 37.0343 30.209C37.0401 30.2452 37.0452 30.2814 37.0481 30.3176C37.0688 30.5572 37.0688 30.5658 37.3027 30.5532C37.4354 30.5457 37.5653 30.4963 37.6981 30.4819C37.7716 30.4739 37.8492 30.4986 37.9251 30.5084C37.9003 30.5808 37.8952 30.671 37.848 30.7233C37.6578 30.9336 37.3918 30.9543 37.1309 30.9836C36.7849 31.0227 36.4654 30.9503 36.1424 30.8158C35.6718 30.6199 35.1913 30.4417 34.7023 30.2992C34.2437 30.1653 33.7662 30.0986 33.3024 29.9797C33.0777 29.9216 32.8651 29.8147 32.649 29.7239C31.7123 29.3303 30.7859 28.9108 29.8366 28.5493C29.3527 28.3654 28.8361 28.2332 28.3229 28.1706C27.7471 28.1005 27.1983 27.9476 26.6489 27.7896C26.0828 27.6264 25.5053 27.6155 24.9277 27.6109C24.4806 27.6069 24.0313 27.6258 23.5859 27.6655C22.6325 27.7505 21.9418 27.281 21.3194 26.6408C20.8045 26.111 20.6804 25.4369 20.6102 24.7456C20.5752 24.4025 20.5683 24.0583 20.4154 23.7388C20.3091 23.5169 20.1402 23.3796 19.9051 23.3118C19.7862 23.2773 19.6914 23.3043 19.6017 23.3813C19.3678 23.5824 19.2385 23.8336 19.2241 24.1439C19.2035 24.6031 19.2546 25.0547 19.4333 25.4789C19.5822 25.8334 19.7592 26.1777 19.9396 26.5179C20.1321 26.8816 20.3471 27.2339 20.5459 27.5948C20.7752 28.0108 20.7786 28.4671 20.7476 28.9223C20.7309 29.1636 20.5614 29.3349 20.3988 29.5004C20.2275 29.6757 20.062 29.8567 19.8873 30.0285C19.4327 30.4739 19.1529 31.025 18.9236 31.606C18.769 31.9979 18.6271 32.3956 18.4754 32.803C18.5702 32.8685 18.6696 32.9346 18.7656 33.0047C18.8328 33.0536 18.9018 33.1036 18.9592 33.1628C19.0592 33.2656 19.0948 33.3886 19.0138 33.5185C18.9351 33.6443 18.8081 33.6616 18.6817 33.6191C18.5489 33.5742 18.4242 33.5076 18.2702 33.4392C18.2501 33.5673 18.2236 33.692 18.2122 33.8179C18.1512 34.5035 18.0541 35.1868 18.1185 35.8787C18.1938 36.6895 18.5064 37.4216 18.8541 38.1434C19.046 38.5422 19.2425 38.9382 19.4368 39.3359C19.4506 39.364 19.4718 39.3974 19.4661 39.4238C19.4241 39.629 19.5799 39.718 19.6971 39.8307C20.2844 40.395 20.8614 40.9702 21.4619 41.5202C22.0969 42.1018 22.7515 42.6615 23.4026 43.2252C23.5278 43.3338 23.6761 43.4166 23.8135 43.5108C24.1313 43.7298 24.4577 43.9372 24.7651 44.1694C25.2145 44.5085 25.7156 44.7303 26.2535 44.8774C26.3483 44.9033 26.4489 44.9188 26.5466 44.9188C26.7655 44.9188 26.8897 44.7941 26.8471 44.5797C26.8052 44.3677 26.7466 44.1476 26.6408 43.962C26.1788 43.1505 25.5392 42.5253 24.6634 42.165C24.1611 41.9581 23.96 41.6018 24.1376 41.0932C24.295 40.6432 24.5209 40.2163 24.7278 39.7841C24.8553 39.5175 25.0036 39.26 25.1473 38.9899C25.0513 38.952 24.9783 38.9233 24.8749 38.883C24.9588 38.8388 25.0099 38.7945 25.0657 38.7859C25.2162 38.7629 25.2582 38.6618 25.2978 38.5342C25.576 37.6469 25.6673 36.7424 25.3921 35.8499C24.9571 34.438 24.01 33.5363 22.5532 33.2024C22.4785 33.1852 22.3957 33.1812 22.3205 33.1938C22.2475 33.2059 22.1791 33.2478 22.109 33.2765C22.0285 33.0777 22.1113 32.8645 22.3044 32.8415C22.5176 32.8162 22.7446 32.8145 22.9526 32.8611C23.8939 33.0731 24.626 33.6104 25.2088 34.3678C26.0805 35.5005 26.2684 36.7774 26.0093 38.1486C25.9897 38.2509 25.9627 38.352 25.9374 38.4532C25.9122 38.5537 25.8851 38.6543 25.8547 38.7715C26.034 38.8399 26.2075 38.906 26.3811 38.9721C26.6345 39.0681 26.8851 39.1744 27.1425 39.2566C27.4988 39.3709 27.8591 39.4755 28.2218 39.5686C28.8361 39.7261 29.4194 39.941 29.9745 40.2617C30.7015 40.6812 31.4594 41.0409 32.2852 41.2455C32.999 41.4219 33.6984 41.6547 34.4109 41.8334C35.0827 42.0023 35.7631 42.138 36.4418 42.2793C36.7884 42.3517 37.0866 42.5138 37.3665 42.7201C37.413 42.7546 37.4527 42.8057 37.5193 42.7391C37.5354 42.7224 37.605 42.7379 37.6348 42.7592C37.7682 42.8557 37.9296 42.9362 38.0193 43.0655C38.2061 43.3333 38.3986 43.6126 38.5089 43.916C38.8313 44.8016 39.2198 45.6636 39.418 46.5939C39.5163 47.0554 39.6876 47.5025 39.8399 47.9519C39.8962 48.1185 39.9783 48.2795 40.0709 48.4294C40.2513 48.7231 40.5674 48.8415 40.9277 48.7702C41.2455 48.7076 41.4254 48.5168 41.4943 48.1622C41.5949 47.6433 41.5639 47.1215 41.5156 46.6014C41.4512 45.9101 41.365 45.2211 41.2972 44.5303C41.2122 43.6631 41.1306 42.7954 41.0616 41.9265C41.0426 41.6891 41.0576 41.4455 41.088 41.2087C41.1277 40.899 41.3593 40.8179 41.6064 41.0099C41.8598 41.207 41.9822 41.4984 42.115 41.7713C42.3017 42.1546 42.454 42.5557 42.6029 42.9557C42.85 43.6195 43.0839 44.2884 43.3223 44.9561C43.6131 45.771 43.893 46.5899 44.1964 47.4002C44.3183 47.7255 44.4757 48.0398 44.6424 48.3461C44.8492 48.7271 45.2199 48.826 45.6164 48.8162C45.7417 48.8128 45.8865 48.7306 45.9836 48.6415C46.2043 48.4398 46.2853 48.1605 46.2635 47.872C46.2422 47.5933 46.2049 47.3071 46.1158 47.0445C45.9532 46.5664 45.7406 46.1061 45.5607 45.6337C45.1969 44.6786 44.8332 43.7223 44.7245 42.6937C44.7159 42.6132 44.6832 42.5333 44.6498 42.458C44.5809 42.3006 44.4901 42.1512 44.4361 41.9897C44.4102 41.9127 44.4228 41.7989 44.4654 41.7317C44.4924 41.6886 44.6056 41.6995 44.6912 41.684C44.647 40.8967 44.7136 40.0835 44.5527 39.2744C44.401 38.5106 44.4838 37.7394 44.5671 36.9677C44.6562 36.1419 44.6544 35.3103 44.4079 34.4994C44.3705 34.3759 44.3412 34.2443 44.3412 34.1167C44.3412 33.7236 44.6734 33.5156 45.0337 33.6719C45.0659 33.6857 45.0987 33.6995 45.1521 33.7219C45.1389 33.6696 45.132 33.6363 45.1216 33.6041C45.0193 33.2926 45.0285 32.984 45.1676 32.6887C45.2607 32.491 45.3733 32.3019 45.4843 32.114C45.5205 32.0525 45.571 31.9841 45.6319 31.9571C45.7107 31.9226 45.8227 31.8922 45.8888 31.9244C45.9434 31.9508 45.9693 32.0697 45.9767 32.1502C45.9825 32.218 45.948 32.2916 45.9227 32.36C45.8578 32.5364 45.79 32.7116 45.721 32.8858C45.6228 33.1329 45.6486 33.3719 45.7365 33.6179C45.7934 33.7771 45.813 33.9501 45.8543 34.115C45.8647 34.1552 45.886 34.2012 45.917 34.2265C46.4238 34.6305 46.9939 34.9138 47.6306 35.0218C47.9703 35.0793 48.3266 35.0672 48.6731 35.0465C49.0828 35.0224 49.492 34.9661 49.8983 34.9034C50.2827 34.8437 50.6753 34.7948 50.9994 34.5443C51.0281 34.5219 51.0603 34.5035 51.0879 34.4799C51.1074 34.4632 51.1218 34.4414 51.1482 34.4109C51.1114 34.3862 51.0798 34.365 51.0218 34.3259C51.089 34.3179 51.1223 34.311 51.1562 34.3104C51.2212 34.3098 51.3315 34.292 51.343 34.3173C51.3735 34.3857 51.3901 34.4851 51.3614 34.55C51.2453 34.8138 51.0206 34.9736 50.7586 35.0598C50.2172 35.2373 49.6587 35.3356 49.0903 35.3821C48.7219 35.412 48.3559 35.493 47.9881 35.4953C47.3048 35.4994 46.6531 35.3327 46.0607 34.9845C45.6613 34.75 45.2757 34.4914 44.8682 34.2334C44.8768 34.2816 44.8855 34.323 44.8918 34.365C44.9596 34.8017 45.0619 35.2367 45.0872 35.6764C45.1239 36.3062 45.0872 36.9349 44.9895 37.5642C44.8987 38.1515 44.9073 38.7463 44.9854 39.3428C45.0544 39.8686 45.0561 40.403 45.0837 40.9334C45.1101 41.4443 45.1285 41.9552 45.1573 42.4655C45.1607 42.5282 45.1929 42.5988 45.2331 42.6477C45.5831 43.0683 45.9049 43.52 46.2974 43.8964C47.7048 45.2458 49.0219 46.6778 50.3057 48.1427C50.9695 48.8995 51.5361 49.7248 52.0252 50.6028C52.401 51.2781 52.6705 51.9958 52.7481 52.7716C52.8113 53.4044 52.6941 54.0124 52.4096 54.5796C52.028 55.3399 51.3792 55.7352 50.5574 55.8662C49.5483 56.0277 48.5409 55.9691 47.5295 55.8571C46.0388 55.6915 44.6004 55.3123 43.1609 54.9094C41.4621 54.4336 39.7594 53.9698 38.1066 53.3555C37.0424 52.9601 36.0062 52.4832 34.9787 51.997C33.3426 51.2229 31.7272 50.404 30.0969 49.6167C29.0257 49.0995 27.9379 48.6174 26.8684 48.0961C25.6398 47.4973 24.4238 46.8721 23.2003 46.2618C23.1382 46.2308 23.0589 46.2348 22.9882 46.2175C22.9641 46.2118 22.9428 46.1928 22.9204 46.1796C22.9359 46.1698 22.952 46.1601 22.9773 46.1446C22.9244 46.1135 22.8773 46.0831 22.8279 46.0572C20.9068 45.036 19.1632 43.7729 17.6179 42.2385C17.0956 41.7202 16.5445 41.23 16.0382 40.6967C15.6945 40.3352 15.3963 39.9284 15.0969 39.5278C14.7687 39.0893 14.4607 38.6353 14.1469 38.186C13.5907 37.3912 13.1493 36.5338 12.9591 35.5827C12.8453 35.0155 12.7942 34.4138 12.847 33.8403C12.9223 33.0225 13.374 32.4048 14.1469 32.0571C14.8124 31.7577 15.4974 31.7508 16.1836 31.9473C16.7542 32.1111 17.3134 32.3151 17.8777 32.5013C17.9214 32.5157 17.9645 32.5312 18.0248 32.5525C18.111 32.3266 18.1932 32.1082 18.2782 31.8904C18.3708 31.6525 18.465 31.4146 18.5593 31.1773C18.8828 30.3624 19.4195 29.7033 20.0718 29.1332C20.2189 29.0045 20.2838 28.8637 20.2827 28.6717C20.2804 28.316 20.2212 27.9775 20.0465 27.6626C19.8442 27.2977 19.6488 26.9287 19.4511 26.5615C19.1144 25.9351 18.8719 25.2789 18.8288 24.5605C18.8035 24.1364 18.8362 23.7238 19.0948 23.3635C19.5356 22.7486 20.3379 22.7859 20.7269 23.4428C20.9188 23.7675 20.9982 24.1249 21.0378 24.499C21.078 24.8818 21.1395 25.2634 21.2211 25.6398C21.3039 26.0242 21.578 26.2926 21.8521 26.5529C22.4434 27.1138 23.1296 27.3402 23.9364 27.1483C24.002 27.1328 24.0715 27.1247 24.1381 27.127C24.753 27.1488 25.3708 27.1431 25.9811 27.2086C26.4127 27.2552 26.8328 27.4023 27.2592 27.4994C27.5528 27.5661 27.8494 27.6201 28.1436 27.6856C28.647 27.7982 29.1533 27.8982 29.6504 28.0338C30.6957 28.3189 31.6841 28.7568 32.6507 29.2366C33.2645 29.5412 33.9116 29.6883 34.5742 29.805C34.769 29.8394 34.9678 29.8693 35.1523 29.936C35.593 30.0958 36.0263 30.2762 36.4625 30.4475C36.5441 30.4796 36.6274 30.5072 36.7407 30.548C36.7269 30.4773 36.7211 30.4342 36.7096 30.3934C36.4596 29.5004 36.0648 28.6665 35.6804 27.8264C34.9655 26.265 34.2983 24.6841 33.8696 23.0152C33.3696 21.07 33.1116 19.0914 33.0915 17.0841C33.0823 16.1882 33.1639 15.2974 33.4466 14.4412C33.7897 13.4016 34.3805 12.5206 35.2344 11.8281C35.7821 11.3839 36.4275 11.1972 37.1222 11.1679C37.3636 11.1575 37.5952 11.2167 37.7883 11.3604C38.4606 11.8603 38.9744 12.4775 39.1313 13.3275C39.1652 13.5125 39.1652 13.7182 39.1215 13.8998C38.9865 14.4596 38.7922 14.9974 38.4101 15.4658C38.498 15.4451 38.5876 15.4313 38.6727 15.402C40.3335 14.8383 41.388 13.7073 41.8363 12.0109C42.2219 10.5518 41.7426 9.3312 40.7875 8.2491C40.3053 7.70317 39.6876 7.32561 39.0836 6.93138C37.8279 6.11133 36.4321 5.66309 34.9845 5.3292C33.2628 4.93211 31.5215 4.66489 29.7659 4.49248C28.7079 4.38904 27.6465 4.31146 26.5845 4.25227C25.6041 4.19768 24.6381 4.35341 23.6784 4.53616C23.1968 4.62753 22.717 4.72867 22.24 4.84016C21.6837 4.97061 21.1591 5.18611 20.6505 5.44586C19.9908 5.78204 19.3264 6.10903 18.6598 6.43142C18.0507 6.72565 17.4875 7.08712 16.9565 7.50605C15.6779 8.51575 14.5383 9.65877 13.4539 10.8771C12.3655 12.1 11.4483 13.4424 10.503 14.7653C9.38407 16.3313 8.77148 18.1237 8.4261 20.0057C8.15428 21.4883 7.92211 22.9779 7.65202 24.4611C7.45663 25.5352 7.4325 26.6184 7.41525 27.7045C7.40893 28.1218 7.36756 28.5384 7.36124 28.9562C7.34342 30.1699 7.45318 31.3727 7.63823 32.5726C7.77787 33.4794 7.84798 34.3966 7.97958 35.3051C8.0698 35.9286 8.19623 36.5481 8.33875 37.1619C8.39162 37.39 8.52954 37.5998 8.64103 37.8118C8.92204 38.348 9.21512 38.8779 9.49269 39.4157C9.75129 39.9163 9.89553 40.4559 9.99782 41.007C10.0082 41.0633 10.0145 41.1214 10.0128 41.1783C10.007 41.3765 9.92196 41.5317 9.74037 41.6202C9.55188 41.7116 9.36913 41.6805 9.2134 41.5495C8.97778 41.3512 8.89618 41.0949 8.9525 40.7904C8.96801 40.707 8.97491 40.6093 8.94675 40.5329C8.80825 40.1622 8.68413 39.7818 8.50311 39.4313C8.01119 38.479 7.73592 37.4762 7.66294 36.4074C7.60317 35.5275 7.5095 34.65 7.41123 33.7736C7.32676 33.0168 7.20608 32.264 7.11815 31.5077C7.00666 30.552 6.97448 29.5929 7.01988 28.6309C7.05666 27.8591 7.06471 27.0851 7.13539 26.3167C7.20895 25.5128 7.31986 24.7105 7.45203 23.914C7.69569 22.4429 7.95257 20.9729 8.23014 19.5075C8.61861 17.4536 9.35132 15.5376 10.5771 13.8257C10.8748 13.4102 11.1357 12.9689 11.4293 12.5499C11.7253 12.127 12.0184 11.6988 12.3511 11.3063C12.9959 10.5461 13.6332 9.77485 14.336 9.06973C15.6928 7.70834 17.1933 6.53601 19.0075 5.82227C19.3563 5.68492 19.6988 5.52689 20.0344 5.35909C20.8901 4.93153 21.7849 4.63443 22.7291 4.4741C23.6899 4.31089 24.645 4.10918 25.6208 4.04769C25.7547 4.03907 25.8886 4.0293 26.0225 4.01953H26.4926H26.4937ZM18.7173 39.2117C18.4311 38.529 18.1317 37.8682 17.876 37.1906C17.6518 36.5958 17.5444 35.9689 17.5892 35.331C17.6363 34.6604 17.7145 33.9914 17.784 33.3225C17.7932 33.234 17.8099 33.1662 17.6967 33.1294C17.0961 32.9375 16.5008 32.7266 15.8962 32.5479C15.4181 32.4065 14.9371 32.4364 14.4676 32.6191C13.897 32.841 13.4981 33.4489 13.4889 34.0592C13.4694 35.2965 13.8337 36.416 14.4998 37.4429C14.8492 37.9814 15.2348 38.4957 15.5876 39.0319C15.9715 39.6152 16.4106 40.149 16.914 40.6312C17.5208 41.2127 18.1168 41.8064 18.7334 42.3764C19.7322 43.2994 20.801 44.1338 21.9728 44.8303C23.4319 45.698 24.9392 46.475 26.4656 47.2146C28.3999 48.1519 30.3406 49.0754 32.2795 50.0035C33.7995 50.731 35.3178 51.4614 36.8424 52.1792C37.2998 52.3947 37.7676 52.5918 38.2434 52.7625C39.8795 53.3498 41.5524 53.8141 43.227 54.2802C44.7067 54.6922 46.1819 55.0968 47.7163 55.2565C48.6133 55.3496 49.5064 55.3921 50.4017 55.268C51.1298 55.1674 51.6717 54.8094 51.951 54.1124C52.1303 53.6641 52.193 53.1952 52.1274 52.7136C52.0378 52.0527 51.8005 51.4413 51.4798 50.8626C51.0333 50.0569 50.5258 49.2909 49.915 48.6001C48.9949 47.5605 48.0662 46.5284 47.1336 45.5004C46.5727 44.882 45.9969 44.2775 45.4274 43.6672C45.4199 43.6591 45.4055 43.6562 45.3521 43.6315C45.5888 44.2993 45.8147 44.9309 46.0365 45.5641C46.2445 46.1583 46.4652 46.7491 46.6474 47.3514C46.7704 47.7588 46.7514 48.18 46.5738 48.5777C46.4043 48.9576 46.1371 49.2564 45.7026 49.2708C45.1498 49.2892 44.6332 49.1409 44.3263 48.6294C44.1292 48.3007 43.9585 47.9496 43.8235 47.5904C43.2252 46.0003 42.6471 44.4027 42.0541 42.8103C41.9414 42.508 41.7949 42.2178 41.661 41.9242C41.6259 41.8472 41.5777 41.7759 41.5357 41.7018C41.5052 41.7863 41.5041 41.8575 41.5127 41.9276C41.5587 42.3058 41.615 42.6827 41.6535 43.0615C41.773 44.2401 41.8891 45.4187 41.9995 46.5985C42.0506 47.1451 42.073 47.6927 41.9701 48.2375C41.8529 48.8576 41.4213 49.2443 40.8312 49.2409C40.3266 49.238 39.9048 49.0518 39.6674 48.5858C39.4928 48.2433 39.3198 47.891 39.2169 47.5232C38.8876 46.3405 38.4606 45.1941 38.0181 44.0516C37.971 43.9298 37.9228 43.8476 37.7641 43.8281C37.6406 43.8131 37.5211 43.7172 37.4124 43.6384C37.2015 43.4856 37.0067 43.3091 36.7918 43.1626C36.6648 43.0758 36.5183 43.004 36.37 42.9661C35.6988 42.7948 35.0195 42.6523 34.3506 42.4718C33.6259 42.2759 32.9128 42.038 32.1893 41.8386C31.2893 41.5909 30.4716 41.1656 29.6722 40.7007C29.3182 40.495 28.9585 40.3134 28.5654 40.1973C28.116 40.064 27.6609 39.9444 27.2241 39.7761C26.7483 39.5927 26.2909 39.3612 25.8248 39.1514C25.7984 39.1393 25.7685 39.1353 25.7627 39.1342C25.5283 39.5583 25.2938 39.964 25.0777 40.38C24.9341 40.657 24.8042 40.9432 24.6916 41.234C24.6002 41.4702 24.649 41.5397 24.8858 41.6363C25.9145 42.0546 26.677 42.7712 27.1908 43.7465C27.3166 43.9861 27.3988 44.2625 27.4379 44.5309C27.5184 45.0849 27.1103 45.5239 26.5506 45.5222C26.4317 45.5222 26.3098 45.5061 26.1955 45.4745C25.6386 45.3216 25.0978 45.1142 24.6324 44.7728C23.8129 44.1723 22.9589 43.6241 22.1854 42.9528C21.0999 42.0104 20.0614 41.0219 19.0443 40.0088C18.915 39.8801 18.7874 39.7479 18.6736 39.606C18.546 39.4468 18.5667 39.3359 18.7179 39.2123L18.7173 39.2117Z"/>
</mask>
<path d="M26.4937 4.01953C26.5546 4.02758 26.6155 4.03964 26.677 4.04367C27.5816 4.10516 28.4878 4.15056 29.3906 4.23158C30.2262 4.30687 31.0612 4.40111 31.891 4.52122C33.6984 4.78327 35.4982 5.10163 37.2222 5.71711C38.5072 6.17569 39.6778 6.87679 40.7174 7.76178C41.6581 8.56287 42.2121 9.60073 42.3563 10.838C42.4362 11.5236 42.2753 12.1781 42.0299 12.8108C41.4167 14.3912 40.3013 15.4417 38.6773 15.9376C38.1917 16.0859 37.7153 16.0336 37.2665 15.7928C37.1717 15.7422 37.0826 15.671 37.0102 15.5917C36.9154 15.4882 36.8958 15.3589 36.9613 15.2273C37.0251 15.0997 37.1395 15.0561 37.2717 15.0538C37.328 15.0526 37.386 15.0658 37.4412 15.0802C37.7877 15.1693 37.9814 15.1043 38.1388 14.7831C38.2877 14.4802 38.4032 14.1596 38.5164 13.8412C38.5968 13.6154 38.5445 13.3861 38.4693 13.166C38.2969 12.6626 37.9814 12.2597 37.5825 11.9178C37.4337 11.7902 37.2579 11.7391 37.0602 11.7448C36.4499 11.7626 35.9126 11.9448 35.4408 12.3522C34.4109 13.2413 33.8455 14.3647 33.6639 15.7008C33.503 16.8852 33.5742 18.0673 33.6966 19.2471C33.8794 21.0114 34.1822 22.7561 34.8069 24.4215C35.3103 25.7633 35.8878 27.077 36.4395 28.401C36.6843 28.9889 36.9291 29.5757 37.0343 30.209C37.0401 30.2452 37.0452 30.2814 37.0481 30.3176C37.0688 30.5572 37.0688 30.5658 37.3027 30.5532C37.4354 30.5457 37.5653 30.4963 37.6981 30.4819C37.7716 30.4739 37.8492 30.4986 37.9251 30.5084C37.9003 30.5808 37.8952 30.671 37.848 30.7233C37.6578 30.9336 37.3918 30.9543 37.1309 30.9836C36.7849 31.0227 36.4654 30.9503 36.1424 30.8158C35.6718 30.6199 35.1913 30.4417 34.7023 30.2992C34.2437 30.1653 33.7662 30.0986 33.3024 29.9797C33.0777 29.9216 32.8651 29.8147 32.649 29.7239C31.7123 29.3303 30.7859 28.9108 29.8366 28.5493C29.3527 28.3654 28.8361 28.2332 28.3229 28.1706C27.7471 28.1005 27.1983 27.9476 26.6489 27.7896C26.0828 27.6264 25.5053 27.6155 24.9277 27.6109C24.4806 27.6069 24.0313 27.6258 23.5859 27.6655C22.6325 27.7505 21.9418 27.281 21.3194 26.6408C20.8045 26.111 20.6804 25.4369 20.6102 24.7456C20.5752 24.4025 20.5683 24.0583 20.4154 23.7388C20.3091 23.5169 20.1402 23.3796 19.9051 23.3118C19.7862 23.2773 19.6914 23.3043 19.6017 23.3813C19.3678 23.5824 19.2385 23.8336 19.2241 24.1439C19.2035 24.6031 19.2546 25.0547 19.4333 25.4789C19.5822 25.8334 19.7592 26.1777 19.9396 26.5179C20.1321 26.8816 20.3471 27.2339 20.5459 27.5948C20.7752 28.0108 20.7786 28.4671 20.7476 28.9223C20.7309 29.1636 20.5614 29.3349 20.3988 29.5004C20.2275 29.6757 20.062 29.8567 19.8873 30.0285C19.4327 30.4739 19.1529 31.025 18.9236 31.606C18.769 31.9979 18.6271 32.3956 18.4754 32.803C18.5702 32.8685 18.6696 32.9346 18.7656 33.0047C18.8328 33.0536 18.9018 33.1036 18.9592 33.1628C19.0592 33.2656 19.0948 33.3886 19.0138 33.5185C18.9351 33.6443 18.8081 33.6616 18.6817 33.6191C18.5489 33.5742 18.4242 33.5076 18.2702 33.4392C18.2501 33.5673 18.2236 33.692 18.2122 33.8179C18.1512 34.5035 18.0541 35.1868 18.1185 35.8787C18.1938 36.6895 18.5064 37.4216 18.8541 38.1434C19.046 38.5422 19.2425 38.9382 19.4368 39.3359C19.4506 39.364 19.4718 39.3974 19.4661 39.4238C19.4241 39.629 19.5799 39.718 19.6971 39.8307C20.2844 40.395 20.8614 40.9702 21.4619 41.5202C22.0969 42.1018 22.7515 42.6615 23.4026 43.2252C23.5278 43.3338 23.6761 43.4166 23.8135 43.5108C24.1313 43.7298 24.4577 43.9372 24.7651 44.1694C25.2145 44.5085 25.7156 44.7303 26.2535 44.8774C26.3483 44.9033 26.4489 44.9188 26.5466 44.9188C26.7655 44.9188 26.8897 44.7941 26.8471 44.5797C26.8052 44.3677 26.7466 44.1476 26.6408 43.962C26.1788 43.1505 25.5392 42.5253 24.6634 42.165C24.1611 41.9581 23.96 41.6018 24.1376 41.0932C24.295 40.6432 24.5209 40.2163 24.7278 39.7841C24.8553 39.5175 25.0036 39.26 25.1473 38.9899C25.0513 38.952 24.9783 38.9233 24.8749 38.883C24.9588 38.8388 25.0099 38.7945 25.0657 38.7859C25.2162 38.7629 25.2582 38.6618 25.2978 38.5342C25.576 37.6469 25.6673 36.7424 25.3921 35.8499C24.9571 34.438 24.01 33.5363 22.5532 33.2024C22.4785 33.1852 22.3957 33.1812 22.3205 33.1938C22.2475 33.2059 22.1791 33.2478 22.109 33.2765C22.0285 33.0777 22.1113 32.8645 22.3044 32.8415C22.5176 32.8162 22.7446 32.8145 22.9526 32.8611C23.8939 33.0731 24.626 33.6104 25.2088 34.3678C26.0805 35.5005 26.2684 36.7774 26.0093 38.1486C25.9897 38.2509 25.9627 38.352 25.9374 38.4532C25.9122 38.5537 25.8851 38.6543 25.8547 38.7715C26.034 38.8399 26.2075 38.906 26.3811 38.9721C26.6345 39.0681 26.8851 39.1744 27.1425 39.2566C27.4988 39.3709 27.8591 39.4755 28.2218 39.5686C28.8361 39.7261 29.4194 39.941 29.9745 40.2617C30.7015 40.6812 31.4594 41.0409 32.2852 41.2455C32.999 41.4219 33.6984 41.6547 34.4109 41.8334C35.0827 42.0023 35.7631 42.138 36.4418 42.2793C36.7884 42.3517 37.0866 42.5138 37.3665 42.7201C37.413 42.7546 37.4527 42.8057 37.5193 42.7391C37.5354 42.7224 37.605 42.7379 37.6348 42.7592C37.7682 42.8557 37.9296 42.9362 38.0193 43.0655C38.2061 43.3333 38.3986 43.6126 38.5089 43.916C38.8313 44.8016 39.2198 45.6636 39.418 46.5939C39.5163 47.0554 39.6876 47.5025 39.8399 47.9519C39.8962 48.1185 39.9783 48.2795 40.0709 48.4294C40.2513 48.7231 40.5674 48.8415 40.9277 48.7702C41.2455 48.7076 41.4254 48.5168 41.4943 48.1622C41.5949 47.6433 41.5639 47.1215 41.5156 46.6014C41.4512 45.9101 41.365 45.2211 41.2972 44.5303C41.2122 43.6631 41.1306 42.7954 41.0616 41.9265C41.0426 41.6891 41.0576 41.4455 41.088 41.2087C41.1277 40.899 41.3593 40.8179 41.6064 41.0099C41.8598 41.207 41.9822 41.4984 42.115 41.7713C42.3017 42.1546 42.454 42.5557 42.6029 42.9557C42.85 43.6195 43.0839 44.2884 43.3223 44.9561C43.6131 45.771 43.893 46.5899 44.1964 47.4002C44.3183 47.7255 44.4757 48.0398 44.6424 48.3461C44.8492 48.7271 45.2199 48.826 45.6164 48.8162C45.7417 48.8128 45.8865 48.7306 45.9836 48.6415C46.2043 48.4398 46.2853 48.1605 46.2635 47.872C46.2422 47.5933 46.2049 47.3071 46.1158 47.0445C45.9532 46.5664 45.7406 46.1061 45.5607 45.6337C45.1969 44.6786 44.8332 43.7223 44.7245 42.6937C44.7159 42.6132 44.6832 42.5333 44.6498 42.458C44.5809 42.3006 44.4901 42.1512 44.4361 41.9897C44.4102 41.9127 44.4228 41.7989 44.4654 41.7317C44.4924 41.6886 44.6056 41.6995 44.6912 41.684C44.647 40.8967 44.7136 40.0835 44.5527 39.2744C44.401 38.5106 44.4838 37.7394 44.5671 36.9677C44.6562 36.1419 44.6544 35.3103 44.4079 34.4994C44.3705 34.3759 44.3412 34.2443 44.3412 34.1167C44.3412 33.7236 44.6734 33.5156 45.0337 33.6719C45.0659 33.6857 45.0987 33.6995 45.1521 33.7219C45.1389 33.6696 45.132 33.6363 45.1216 33.6041C45.0193 33.2926 45.0285 32.984 45.1676 32.6887C45.2607 32.491 45.3733 32.3019 45.4843 32.114C45.5205 32.0525 45.571 31.9841 45.6319 31.9571C45.7107 31.9226 45.8227 31.8922 45.8888 31.9244C45.9434 31.9508 45.9693 32.0697 45.9767 32.1502C45.9825 32.218 45.948 32.2916 45.9227 32.36C45.8578 32.5364 45.79 32.7116 45.721 32.8858C45.6228 33.1329 45.6486 33.3719 45.7365 33.6179C45.7934 33.7771 45.813 33.9501 45.8543 34.115C45.8647 34.1552 45.886 34.2012 45.917 34.2265C46.4238 34.6305 46.9939 34.9138 47.6306 35.0218C47.9703 35.0793 48.3266 35.0672 48.6731 35.0465C49.0828 35.0224 49.492 34.9661 49.8983 34.9034C50.2827 34.8437 50.6753 34.7948 50.9994 34.5443C51.0281 34.5219 51.0603 34.5035 51.0879 34.4799C51.1074 34.4632 51.1218 34.4414 51.1482 34.4109C51.1114 34.3862 51.0798 34.365 51.0218 34.3259C51.089 34.3179 51.1223 34.311 51.1562 34.3104C51.2212 34.3098 51.3315 34.292 51.343 34.3173C51.3735 34.3857 51.3901 34.4851 51.3614 34.55C51.2453 34.8138 51.0206 34.9736 50.7586 35.0598C50.2172 35.2373 49.6587 35.3356 49.0903 35.3821C48.7219 35.412 48.3559 35.493 47.9881 35.4953C47.3048 35.4994 46.6531 35.3327 46.0607 34.9845C45.6613 34.75 45.2757 34.4914 44.8682 34.2334C44.8768 34.2816 44.8855 34.323 44.8918 34.365C44.9596 34.8017 45.0619 35.2367 45.0872 35.6764C45.1239 36.3062 45.0872 36.9349 44.9895 37.5642C44.8987 38.1515 44.9073 38.7463 44.9854 39.3428C45.0544 39.8686 45.0561 40.403 45.0837 40.9334C45.1101 41.4443 45.1285 41.9552 45.1573 42.4655C45.1607 42.5282 45.1929 42.5988 45.2331 42.6477C45.5831 43.0683 45.9049 43.52 46.2974 43.8964C47.7048 45.2458 49.0219 46.6778 50.3057 48.1427C50.9695 48.8995 51.5361 49.7248 52.0252 50.6028C52.401 51.2781 52.6705 51.9958 52.7481 52.7716C52.8113 53.4044 52.6941 54.0124 52.4096 54.5796C52.028 55.3399 51.3792 55.7352 50.5574 55.8662C49.5483 56.0277 48.5409 55.9691 47.5295 55.8571C46.0388 55.6915 44.6004 55.3123 43.1609 54.9094C41.4621 54.4336 39.7594 53.9698 38.1066 53.3555C37.0424 52.9601 36.0062 52.4832 34.9787 51.997C33.3426 51.2229 31.7272 50.404 30.0969 49.6167C29.0257 49.0995 27.9379 48.6174 26.8684 48.0961C25.6398 47.4973 24.4238 46.8721 23.2003 46.2618C23.1382 46.2308 23.0589 46.2348 22.9882 46.2175C22.9641 46.2118 22.9428 46.1928 22.9204 46.1796C22.9359 46.1698 22.952 46.1601 22.9773 46.1446C22.9244 46.1135 22.8773 46.0831 22.8279 46.0572C20.9068 45.036 19.1632 43.7729 17.6179 42.2385C17.0956 41.7202 16.5445 41.23 16.0382 40.6967C15.6945 40.3352 15.3963 39.9284 15.0969 39.5278C14.7687 39.0893 14.4607 38.6353 14.1469 38.186C13.5907 37.3912 13.1493 36.5338 12.9591 35.5827C12.8453 35.0155 12.7942 34.4138 12.847 33.8403C12.9223 33.0225 13.374 32.4048 14.1469 32.0571C14.8124 31.7577 15.4974 31.7508 16.1836 31.9473C16.7542 32.1111 17.3134 32.3151 17.8777 32.5013C17.9214 32.5157 17.9645 32.5312 18.0248 32.5525C18.111 32.3266 18.1932 32.1082 18.2782 31.8904C18.3708 31.6525 18.465 31.4146 18.5593 31.1773C18.8828 30.3624 19.4195 29.7033 20.0718 29.1332C20.2189 29.0045 20.2838 28.8637 20.2827 28.6717C20.2804 28.316 20.2212 27.9775 20.0465 27.6626C19.8442 27.2977 19.6488 26.9287 19.4511 26.5615C19.1144 25.9351 18.8719 25.2789 18.8288 24.5605C18.8035 24.1364 18.8362 23.7238 19.0948 23.3635C19.5356 22.7486 20.3379 22.7859 20.7269 23.4428C20.9188 23.7675 20.9982 24.1249 21.0378 24.499C21.078 24.8818 21.1395 25.2634 21.2211 25.6398C21.3039 26.0242 21.578 26.2926 21.8521 26.5529C22.4434 27.1138 23.1296 27.3402 23.9364 27.1483C24.002 27.1328 24.0715 27.1247 24.1381 27.127C24.753 27.1488 25.3708 27.1431 25.9811 27.2086C26.4127 27.2552 26.8328 27.4023 27.2592 27.4994C27.5528 27.5661 27.8494 27.6201 28.1436 27.6856C28.647 27.7982 29.1533 27.8982 29.6504 28.0338C30.6957 28.3189 31.6841 28.7568 32.6507 29.2366C33.2645 29.5412 33.9116 29.6883 34.5742 29.805C34.769 29.8394 34.9678 29.8693 35.1523 29.936C35.593 30.0958 36.0263 30.2762 36.4625 30.4475C36.5441 30.4796 36.6274 30.5072 36.7407 30.548C36.7269 30.4773 36.7211 30.4342 36.7096 30.3934C36.4596 29.5004 36.0648 28.6665 35.6804 27.8264C34.9655 26.265 34.2983 24.6841 33.8696 23.0152C33.3696 21.07 33.1116 19.0914 33.0915 17.0841C33.0823 16.1882 33.1639 15.2974 33.4466 14.4412C33.7897 13.4016 34.3805 12.5206 35.2344 11.8281C35.7821 11.3839 36.4275 11.1972 37.1222 11.1679C37.3636 11.1575 37.5952 11.2167 37.7883 11.3604C38.4606 11.8603 38.9744 12.4775 39.1313 13.3275C39.1652 13.5125 39.1652 13.7182 39.1215 13.8998C38.9865 14.4596 38.7922 14.9974 38.4101 15.4658C38.498 15.4451 38.5876 15.4313 38.6727 15.402C40.3335 14.8383 41.388 13.7073 41.8363 12.0109C42.2219 10.5518 41.7426 9.3312 40.7875 8.2491C40.3053 7.70317 39.6876 7.32561 39.0836 6.93138C37.8279 6.11133 36.4321 5.66309 34.9845 5.3292C33.2628 4.93211 31.5215 4.66489 29.7659 4.49248C28.7079 4.38904 27.6465 4.31146 26.5845 4.25227C25.6041 4.19768 24.6381 4.35341 23.6784 4.53616C23.1968 4.62753 22.717 4.72867 22.24 4.84016C21.6837 4.97061 21.1591 5.18611 20.6505 5.44586C19.9908 5.78204 19.3264 6.10903 18.6598 6.43142C18.0507 6.72565 17.4875 7.08712 16.9565 7.50605C15.6779 8.51575 14.5383 9.65877 13.4539 10.8771C12.3655 12.1 11.4483 13.4424 10.503 14.7653C9.38407 16.3313 8.77148 18.1237 8.4261 20.0057C8.15428 21.4883 7.92211 22.9779 7.65202 24.4611C7.45663 25.5352 7.4325 26.6184 7.41525 27.7045C7.40893 28.1218 7.36756 28.5384 7.36124 28.9562C7.34342 30.1699 7.45318 31.3727 7.63823 32.5726C7.77787 33.4794 7.84798 34.3966 7.97958 35.3051C8.0698 35.9286 8.19623 36.5481 8.33875 37.1619C8.39162 37.39 8.52954 37.5998 8.64103 37.8118C8.92204 38.348 9.21512 38.8779 9.49269 39.4157C9.75129 39.9163 9.89553 40.4559 9.99782 41.007C10.0082 41.0633 10.0145 41.1214 10.0128 41.1783C10.007 41.3765 9.92196 41.5317 9.74037 41.6202C9.55188 41.7116 9.36913 41.6805 9.2134 41.5495C8.97778 41.3512 8.89618 41.0949 8.9525 40.7904C8.96801 40.707 8.97491 40.6093 8.94675 40.5329C8.80825 40.1622 8.68413 39.7818 8.50311 39.4313C8.01119 38.479 7.73592 37.4762 7.66294 36.4074C7.60317 35.5275 7.5095 34.65 7.41123 33.7736C7.32676 33.0168 7.20608 32.264 7.11815 31.5077C7.00666 30.552 6.97448 29.5929 7.01988 28.6309C7.05666 27.8591 7.06471 27.0851 7.13539 26.3167C7.20895 25.5128 7.31986 24.7105 7.45203 23.914C7.69569 22.4429 7.95257 20.9729 8.23014 19.5075C8.61861 17.4536 9.35132 15.5376 10.5771 13.8257C10.8748 13.4102 11.1357 12.9689 11.4293 12.5499C11.7253 12.127 12.0184 11.6988 12.3511 11.3063C12.9959 10.5461 13.6332 9.77485 14.336 9.06973C15.6928 7.70834 17.1933 6.53601 19.0075 5.82227C19.3563 5.68492 19.6988 5.52689 20.0344 5.35909C20.8901 4.93153 21.7849 4.63443 22.7291 4.4741C23.6899 4.31089 24.645 4.10918 25.6208 4.04769C25.7547 4.03907 25.8886 4.0293 26.0225 4.01953H26.4926H26.4937ZM18.7173 39.2117C18.4311 38.529 18.1317 37.8682 17.876 37.1906C17.6518 36.5958 17.5444 35.9689 17.5892 35.331C17.6363 34.6604 17.7145 33.9914 17.784 33.3225C17.7932 33.234 17.8099 33.1662 17.6967 33.1294C17.0961 32.9375 16.5008 32.7266 15.8962 32.5479C15.4181 32.4065 14.9371 32.4364 14.4676 32.6191C13.897 32.841 13.4981 33.4489 13.4889 34.0592C13.4694 35.2965 13.8337 36.416 14.4998 37.4429C14.8492 37.9814 15.2348 38.4957 15.5876 39.0319C15.9715 39.6152 16.4106 40.149 16.914 40.6312C17.5208 41.2127 18.1168 41.8064 18.7334 42.3764C19.7322 43.2994 20.801 44.1338 21.9728 44.8303C23.4319 45.698 24.9392 46.475 26.4656 47.2146C28.3999 48.1519 30.3406 49.0754 32.2795 50.0035C33.7995 50.731 35.3178 51.4614 36.8424 52.1792C37.2998 52.3947 37.7676 52.5918 38.2434 52.7625C39.8795 53.3498 41.5524 53.8141 43.227 54.2802C44.7067 54.6922 46.1819 55.0968 47.7163 55.2565C48.6133 55.3496 49.5064 55.3921 50.4017 55.268C51.1298 55.1674 51.6717 54.8094 51.951 54.1124C52.1303 53.6641 52.193 53.1952 52.1274 52.7136C52.0378 52.0527 51.8005 51.4413 51.4798 50.8626C51.0333 50.0569 50.5258 49.2909 49.915 48.6001C48.9949 47.5605 48.0662 46.5284 47.1336 45.5004C46.5727 44.882 45.9969 44.2775 45.4274 43.6672C45.4199 43.6591 45.4055 43.6562 45.3521 43.6315C45.5888 44.2993 45.8147 44.9309 46.0365 45.5641C46.2445 46.1583 46.4652 46.7491 46.6474 47.3514C46.7704 47.7588 46.7514 48.18 46.5738 48.5777C46.4043 48.9576 46.1371 49.2564 45.7026 49.2708C45.1498 49.2892 44.6332 49.1409 44.3263 48.6294C44.1292 48.3007 43.9585 47.9496 43.8235 47.5904C43.2252 46.0003 42.6471 44.4027 42.0541 42.8103C41.9414 42.508 41.7949 42.2178 41.661 41.9242C41.6259 41.8472 41.5777 41.7759 41.5357 41.7018C41.5052 41.7863 41.5041 41.8575 41.5127 41.9276C41.5587 42.3058 41.615 42.6827 41.6535 43.0615C41.773 44.2401 41.8891 45.4187 41.9995 46.5985C42.0506 47.1451 42.073 47.6927 41.9701 48.2375C41.8529 48.8576 41.4213 49.2443 40.8312 49.2409C40.3266 49.238 39.9048 49.0518 39.6674 48.5858C39.4928 48.2433 39.3198 47.891 39.2169 47.5232C38.8876 46.3405 38.4606 45.1941 38.0181 44.0516C37.971 43.9298 37.9228 43.8476 37.7641 43.8281C37.6406 43.8131 37.5211 43.7172 37.4124 43.6384C37.2015 43.4856 37.0067 43.3091 36.7918 43.1626C36.6648 43.0758 36.5183 43.004 36.37 42.9661C35.6988 42.7948 35.0195 42.6523 34.3506 42.4718C33.6259 42.2759 32.9128 42.038 32.1893 41.8386C31.2893 41.5909 30.4716 41.1656 29.6722 40.7007C29.3182 40.495 28.9585 40.3134 28.5654 40.1973C28.116 40.064 27.6609 39.9444 27.2241 39.7761C26.7483 39.5927 26.2909 39.3612 25.8248 39.1514C25.7984 39.1393 25.7685 39.1353 25.7627 39.1342C25.5283 39.5583 25.2938 39.964 25.0777 40.38C24.9341 40.657 24.8042 40.9432 24.6916 41.234C24.6002 41.4702 24.649 41.5397 24.8858 41.6363C25.9145 42.0546 26.677 42.7712 27.1908 43.7465C27.3166 43.9861 27.3988 44.2625 27.4379 44.5309C27.5184 45.0849 27.1103 45.5239 26.5506 45.5222C26.4317 45.5222 26.3098 45.5061 26.1955 45.4745C25.6386 45.3216 25.0978 45.1142 24.6324 44.7728C23.8129 44.1723 22.9589 43.6241 22.1854 42.9528C21.0999 42.0104 20.0614 41.0219 19.0443 40.0088C18.915 39.8801 18.7874 39.7479 18.6736 39.606C18.546 39.4468 18.5667 39.3359 18.7179 39.2123L18.7173 39.2117Z" fill="black"/>
<path d="M26.4937 4.01953C26.5546 4.02758 26.6155 4.03964 26.677 4.04367C27.5816 4.10516 28.4878 4.15056 29.3906 4.23158C30.2262 4.30687 31.0612 4.40111 31.891 4.52122C33.6984 4.78327 35.4982 5.10163 37.2222 5.71711C38.5072 6.17569 39.6778 6.87679 40.7174 7.76178C41.6581 8.56287 42.2121 9.60073 42.3563 10.838C42.4362 11.5236 42.2753 12.1781 42.0299 12.8108C41.4167 14.3912 40.3013 15.4417 38.6773 15.9376C38.1917 16.0859 37.7153 16.0336 37.2665 15.7928C37.1717 15.7422 37.0826 15.671 37.0102 15.5917C36.9154 15.4882 36.8958 15.3589 36.9613 15.2273C37.0251 15.0997 37.1395 15.0561 37.2717 15.0538C37.328 15.0526 37.386 15.0658 37.4412 15.0802C37.7877 15.1693 37.9814 15.1043 38.1388 14.7831C38.2877 14.4802 38.4032 14.1596 38.5164 13.8412C38.5968 13.6154 38.5445 13.3861 38.4693 13.166C38.2969 12.6626 37.9814 12.2597 37.5825 11.9178C37.4337 11.7902 37.2579 11.7391 37.0602 11.7448C36.4499 11.7626 35.9126 11.9448 35.4408 12.3522C34.4109 13.2413 33.8455 14.3647 33.6639 15.7008C33.503 16.8852 33.5742 18.0673 33.6966 19.2471C33.8794 21.0114 34.1822 22.7561 34.8069 24.4215C35.3103 25.7633 35.8878 27.077 36.4395 28.401C36.6843 28.9889 36.9291 29.5757 37.0343 30.209C37.0401 30.2452 37.0452 30.2814 37.0481 30.3176C37.0688 30.5572 37.0688 30.5658 37.3027 30.5532C37.4354 30.5457 37.5653 30.4963 37.6981 30.4819C37.7716 30.4739 37.8492 30.4986 37.9251 30.5084C37.9003 30.5808 37.8952 30.671 37.848 30.7233C37.6578 30.9336 37.3918 30.9543 37.1309 30.9836C36.7849 31.0227 36.4654 30.9503 36.1424 30.8158C35.6718 30.6199 35.1913 30.4417 34.7023 30.2992C34.2437 30.1653 33.7662 30.0986 33.3024 29.9797C33.0777 29.9216 32.8651 29.8147 32.649 29.7239C31.7123 29.3303 30.7859 28.9108 29.8366 28.5493C29.3527 28.3654 28.8361 28.2332 28.3229 28.1706C27.7471 28.1005 27.1983 27.9476 26.6489 27.7896C26.0828 27.6264 25.5053 27.6155 24.9277 27.6109C24.4806 27.6069 24.0313 27.6258 23.5859 27.6655C22.6325 27.7505 21.9418 27.281 21.3194 26.6408C20.8045 26.111 20.6804 25.4369 20.6102 24.7456C20.5752 24.4025 20.5683 24.0583 20.4154 23.7388C20.3091 23.5169 20.1402 23.3796 19.9051 23.3118C19.7862 23.2773 19.6914 23.3043 19.6017 23.3813C19.3678 23.5824 19.2385 23.8336 19.2241 24.1439C19.2035 24.6031 19.2546 25.0547 19.4333 25.4789C19.5822 25.8334 19.7592 26.1777 19.9396 26.5179C20.1321 26.8816 20.3471 27.2339 20.5459 27.5948C20.7752 28.0108 20.7786 28.4671 20.7476 28.9223C20.7309 29.1636 20.5614 29.3349 20.3988 29.5004C20.2275 29.6757 20.062 29.8567 19.8873 30.0285C19.4327 30.4739 19.1529 31.025 18.9236 31.606C18.769 31.9979 18.6271 32.3956 18.4754 32.803C18.5702 32.8685 18.6696 32.9346 18.7656 33.0047C18.8328 33.0536 18.9018 33.1036 18.9592 33.1628C19.0592 33.2656 19.0948 33.3886 19.0138 33.5185C18.9351 33.6443 18.8081 33.6616 18.6817 33.6191C18.5489 33.5742 18.4242 33.5076 18.2702 33.4392C18.2501 33.5673 18.2236 33.692 18.2122 33.8179C18.1512 34.5035 18.0541 35.1868 18.1185 35.8787C18.1938 36.6895 18.5064 37.4216 18.8541 38.1434C19.046 38.5422 19.2425 38.9382 19.4368 39.3359C19.4506 39.364 19.4718 39.3974 19.4661 39.4238C19.4241 39.629 19.5799 39.718 19.6971 39.8307C20.2844 40.395 20.8614 40.9702 21.4619 41.5202C22.0969 42.1018 22.7515 42.6615 23.4026 43.2252C23.5278 43.3338 23.6761 43.4166 23.8135 43.5108C24.1313 43.7298 24.4577 43.9372 24.7651 44.1694C25.2145 44.5085 25.7156 44.7303 26.2535 44.8774C26.3483 44.9033 26.4489 44.9188 26.5466 44.9188C26.7655 44.9188 26.8897 44.7941 26.8471 44.5797C26.8052 44.3677 26.7466 44.1476 26.6408 43.962C26.1788 43.1505 25.5392 42.5253 24.6634 42.165C24.1611 41.9581 23.96 41.6018 24.1376 41.0932C24.295 40.6432 24.5209 40.2163 24.7278 39.7841C24.8553 39.5175 25.0036 39.26 25.1473 38.9899C25.0513 38.952 24.9783 38.9233 24.8749 38.883C24.9588 38.8388 25.0099 38.7945 25.0657 38.7859C25.2162 38.7629 25.2582 38.6618 25.2978 38.5342C25.576 37.6469 25.6673 36.7424 25.3921 35.8499C24.9571 34.438 24.01 33.5363 22.5532 33.2024C22.4785 33.1852 22.3957 33.1812 22.3205 33.1938C22.2475 33.2059 22.1791 33.2478 22.109 33.2765C22.0285 33.0777 22.1113 32.8645 22.3044 32.8415C22.5176 32.8162 22.7446 32.8145 22.9526 32.8611C23.8939 33.0731 24.626 33.6104 25.2088 34.3678C26.0805 35.5005 26.2684 36.7774 26.0093 38.1486C25.9897 38.2509 25.9627 38.352 25.9374 38.4532C25.9122 38.5537 25.8851 38.6543 25.8547 38.7715C26.034 38.8399 26.2075 38.906 26.3811 38.9721C26.6345 39.0681 26.8851 39.1744 27.1425 39.2566C27.4988 39.3709 27.8591 39.4755 28.2218 39.5686C28.8361 39.7261 29.4194 39.941 29.9745 40.2617C30.7015 40.6812 31.4594 41.0409 32.2852 41.2455C32.999 41.4219 33.6984 41.6547 34.4109 41.8334C35.0827 42.0023 35.7631 42.138 36.4418 42.2793C36.7884 42.3517 37.0866 42.5138 37.3665 42.7201C37.413 42.7546 37.4527 42.8057 37.5193 42.7391C37.5354 42.7224 37.605 42.7379 37.6348 42.7592C37.7682 42.8557 37.9296 42.9362 38.0193 43.0655C38.2061 43.3333 38.3986 43.6126 38.5089 43.916C38.8313 44.8016 39.2198 45.6636 39.418 46.5939C39.5163 47.0554 39.6876 47.5025 39.8399 47.9519C39.8962 48.1185 39.9783 48.2795 40.0709 48.4294C40.2513 48.7231 40.5674 48.8415 40.9277 48.7702C41.2455 48.7076 41.4254 48.5168 41.4943 48.1622C41.5949 47.6433 41.5639 47.1215 41.5156 46.6014C41.4512 45.9101 41.365 45.2211 41.2972 44.5303C41.2122 43.6631 41.1306 42.7954 41.0616 41.9265C41.0426 41.6891 41.0576 41.4455 41.088 41.2087C41.1277 40.899 41.3593 40.8179 41.6064 41.0099C41.8598 41.207 41.9822 41.4984 42.115 41.7713C42.3017 42.1546 42.454 42.5557 42.6029 42.9557C42.85 43.6195 43.0839 44.2884 43.3223 44.9561C43.6131 45.771 43.893 46.5899 44.1964 47.4002C44.3183 47.7255 44.4757 48.0398 44.6424 48.3461C44.8492 48.7271 45.2199 48.826 45.6164 48.8162C45.7417 48.8128 45.8865 48.7306 45.9836 48.6415C46.2043 48.4398 46.2853 48.1605 46.2635 47.872C46.2422 47.5933 46.2049 47.3071 46.1158 47.0445C45.9532 46.5664 45.7406 46.1061 45.5607 45.6337C45.1969 44.6786 44.8332 43.7223 44.7245 42.6937C44.7159 42.6132 44.6832 42.5333 44.6498 42.458C44.5809 42.3006 44.4901 42.1512 44.4361 41.9897C44.4102 41.9127 44.4228 41.7989 44.4654 41.7317C44.4924 41.6886 44.6056 41.6995 44.6912 41.684C44.647 40.8967 44.7136 40.0835 44.5527 39.2744C44.401 38.5106 44.4838 37.7394 44.5671 36.9677C44.6562 36.1419 44.6544 35.3103 44.4079 34.4994C44.3705 34.3759 44.3412 34.2443 44.3412 34.1167C44.3412 33.7236 44.6734 33.5156 45.0337 33.6719C45.0659 33.6857 45.0987 33.6995 45.1521 33.7219C45.1389 33.6696 45.132 33.6363 45.1216 33.6041C45.0193 33.2926 45.0285 32.984 45.1676 32.6887C45.2607 32.491 45.3733 32.3019 45.4843 32.114C45.5205 32.0525 45.571 31.9841 45.6319 31.9571C45.7107 31.9226 45.8227 31.8922 45.8888 31.9244C45.9434 31.9508 45.9693 32.0697 45.9767 32.1502C45.9825 32.218 45.948 32.2916 45.9227 32.36C45.8578 32.5364 45.79 32.7116 45.721 32.8858C45.6228 33.1329 45.6486 33.3719 45.7365 33.6179C45.7934 33.7771 45.813 33.9501 45.8543 34.115C45.8647 34.1552 45.886 34.2012 45.917 34.2265C46.4238 34.6305 46.9939 34.9138 47.6306 35.0218C47.9703 35.0793 48.3266 35.0672 48.6731 35.0465C49.0828 35.0224 49.492 34.9661 49.8983 34.9034C50.2827 34.8437 50.6753 34.7948 50.9994 34.5443C51.0281 34.5219 51.0603 34.5035 51.0879 34.4799C51.1074 34.4632 51.1218 34.4414 51.1482 34.4109C51.1114 34.3862 51.0798 34.365 51.0218 34.3259C51.089 34.3179 51.1223 34.311 51.1562 34.3104C51.2212 34.3098 51.3315 34.292 51.343 34.3173C51.3735 34.3857 51.3901 34.4851 51.3614 34.55C51.2453 34.8138 51.0206 34.9736 50.7586 35.0598C50.2172 35.2373 49.6587 35.3356 49.0903 35.3821C48.7219 35.412 48.3559 35.493 47.9881 35.4953C47.3048 35.4994 46.6531 35.3327 46.0607 34.9845C45.6613 34.75 45.2757 34.4914 44.8682 34.2334C44.8768 34.2816 44.8855 34.323 44.8918 34.365C44.9596 34.8017 45.0619 35.2367 45.0872 35.6764C45.1239 36.3062 45.0872 36.9349 44.9895 37.5642C44.8987 38.1515 44.9073 38.7463 44.9854 39.3428C45.0544 39.8686 45.0561 40.403 45.0837 40.9334C45.1101 41.4443 45.1285 41.9552 45.1573 42.4655C45.1607 42.5282 45.1929 42.5988 45.2331 42.6477C45.5831 43.0683 45.9049 43.52 46.2974 43.8964C47.7048 45.2458 49.0219 46.6778 50.3057 48.1427C50.9695 48.8995 51.5361 49.7248 52.0252 50.6028C52.401 51.2781 52.6705 51.9958 52.7481 52.7716C52.8113 53.4044 52.6941 54.0124 52.4096 54.5796C52.028 55.3399 51.3792 55.7352 50.5574 55.8662C49.5483 56.0277 48.5409 55.9691 47.5295 55.8571C46.0388 55.6915 44.6004 55.3123 43.1609 54.9094C41.4621 54.4336 39.7594 53.9698 38.1066 53.3555C37.0424 52.9601 36.0062 52.4832 34.9787 51.997C33.3426 51.2229 31.7272 50.404 30.0969 49.6167C29.0257 49.0995 27.9379 48.6174 26.8684 48.0961C25.6398 47.4973 24.4238 46.8721 23.2003 46.2618C23.1382 46.2308 23.0589 46.2348 22.9882 46.2175C22.9641 46.2118 22.9428 46.1928 22.9204 46.1796C22.9359 46.1698 22.952 46.1601 22.9773 46.1446C22.9244 46.1135 22.8773 46.0831 22.8279 46.0572C20.9068 45.036 19.1632 43.7729 17.6179 42.2385C17.0956 41.7202 16.5445 41.23 16.0382 40.6967C15.6945 40.3352 15.3963 39.9284 15.0969 39.5278C14.7687 39.0893 14.4607 38.6353 14.1469 38.186C13.5907 37.3912 13.1493 36.5338 12.9591 35.5827C12.8453 35.0155 12.7942 34.4138 12.847 33.8403C12.9223 33.0225 13.374 32.4048 14.1469 32.0571C14.8124 31.7577 15.4974 31.7508 16.1836 31.9473C16.7542 32.1111 17.3134 32.3151 17.8777 32.5013C17.9214 32.5157 17.9645 32.5312 18.0248 32.5525C18.111 32.3266 18.1932 32.1082 18.2782 31.8904C18.3708 31.6525 18.465 31.4146 18.5593 31.1773C18.8828 30.3624 19.4195 29.7033 20.0718 29.1332C20.2189 29.0045 20.2838 28.8637 20.2827 28.6717C20.2804 28.316 20.2212 27.9775 20.0465 27.6626C19.8442 27.2977 19.6488 26.9287 19.4511 26.5615C19.1144 25.9351 18.8719 25.2789 18.8288 24.5605C18.8035 24.1364 18.8362 23.7238 19.0948 23.3635C19.5356 22.7486 20.3379 22.7859 20.7269 23.4428C20.9188 23.7675 20.9982 24.1249 21.0378 24.499C21.078 24.8818 21.1395 25.2634 21.2211 25.6398C21.3039 26.0242 21.578 26.2926 21.8521 26.5529C22.4434 27.1138 23.1296 27.3402 23.9364 27.1483C24.002 27.1328 24.0715 27.1247 24.1381 27.127C24.753 27.1488 25.3708 27.1431 25.9811 27.2086C26.4127 27.2552 26.8328 27.4023 27.2592 27.4994C27.5528 27.5661 27.8494 27.6201 28.1436 27.6856C28.647 27.7982 29.1533 27.8982 29.6504 28.0338C30.6957 28.3189 31.6841 28.7568 32.6507 29.2366C33.2645 29.5412 33.9116 29.6883 34.5742 29.805C34.769 29.8394 34.9678 29.8693 35.1523 29.936C35.593 30.0958 36.0263 30.2762 36.4625 30.4475C36.5441 30.4796 36.6274 30.5072 36.7407 30.548C36.7269 30.4773 36.7211 30.4342 36.7096 30.3934C36.4596 29.5004 36.0648 28.6665 35.6804 27.8264C34.9655 26.265 34.2983 24.6841 33.8696 23.0152C33.3696 21.07 33.1116 19.0914 33.0915 17.0841C33.0823 16.1882 33.1639 15.2974 33.4466 14.4412C33.7897 13.4016 34.3805 12.5206 35.2344 11.8281C35.7821 11.3839 36.4275 11.1972 37.1222 11.1679C37.3636 11.1575 37.5952 11.2167 37.7883 11.3604C38.4606 11.8603 38.9744 12.4775 39.1313 13.3275C39.1652 13.5125 39.1652 13.7182 39.1215 13.8998C38.9865 14.4596 38.7922 14.9974 38.4101 15.4658C38.498 15.4451 38.5876 15.4313 38.6727 15.402C40.3335 14.8383 41.388 13.7073 41.8363 12.0109C42.2219 10.5518 41.7426 9.3312 40.7875 8.2491C40.3053 7.70317 39.6876 7.32561 39.0836 6.93138C37.8279 6.11133 36.4321 5.66309 34.9845 5.3292C33.2628 4.93211 31.5215 4.66489 29.7659 4.49248C28.7079 4.38904 27.6465 4.31146 26.5845 4.25227C25.6041 4.19768 24.6381 4.35341 23.6784 4.53616C23.1968 4.62753 22.717 4.72867 22.24 4.84016C21.6837 4.97061 21.1591 5.18611 20.6505 5.44586C19.9908 5.78204 19.3264 6.10903 18.6598 6.43142C18.0507 6.72565 17.4875 7.08712 16.9565 7.50605C15.6779 8.51575 14.5383 9.65877 13.4539 10.8771C12.3655 12.1 11.4483 13.4424 10.503 14.7653C9.38407 16.3313 8.77148 18.1237 8.4261 20.0057C8.15428 21.4883 7.92211 22.9779 7.65202 24.4611C7.45663 25.5352 7.4325 26.6184 7.41525 27.7045C7.40893 28.1218 7.36756 28.5384 7.36124 28.9562C7.34342 30.1699 7.45318 31.3727 7.63823 32.5726C7.77787 33.4794 7.84798 34.3966 7.97958 35.3051C8.0698 35.9286 8.19623 36.5481 8.33875 37.1619C8.39162 37.39 8.52954 37.5998 8.64103 37.8118C8.92204 38.348 9.21512 38.8779 9.49269 39.4157C9.75129 39.9163 9.89553 40.4559 9.99782 41.007C10.0082 41.0633 10.0145 41.1214 10.0128 41.1783C10.007 41.3765 9.92196 41.5317 9.74037 41.6202C9.55188 41.7116 9.36913 41.6805 9.2134 41.5495C8.97778 41.3512 8.89618 41.0949 8.9525 40.7904C8.96801 40.707 8.97491 40.6093 8.94675 40.5329C8.80825 40.1622 8.68413 39.7818 8.50311 39.4313C8.01119 38.479 7.73592 37.4762 7.66294 36.4074C7.60317 35.5275 7.5095 34.65 7.41123 33.7736C7.32676 33.0168 7.20608 32.264 7.11815 31.5077C7.00666 30.552 6.97448 29.5929 7.01988 28.6309C7.05666 27.8591 7.06471 27.0851 7.13539 26.3167C7.20895 25.5128 7.31986 24.7105 7.45203 23.914C7.69569 22.4429 7.95257 20.9729 8.23014 19.5075C8.61861 17.4536 9.35132 15.5376 10.5771 13.8257C10.8748 13.4102 11.1357 12.9689 11.4293 12.5499C11.7253 12.127 12.0184 11.6988 12.3511 11.3063C12.9959 10.5461 13.6332 9.77485 14.336 9.06973C15.6928 7.70834 17.1933 6.53601 19.0075 5.82227C19.3563 5.68492 19.6988 5.52689 20.0344 5.35909C20.8901 4.93153 21.7849 4.63443 22.7291 4.4741C23.6899 4.31089 24.645 4.10918 25.6208 4.04769C25.7547 4.03907 25.8886 4.0293 26.0225 4.01953H26.4926H26.4937ZM18.7173 39.2117C18.4311 38.529 18.1317 37.8682 17.876 37.1906C17.6518 36.5958 17.5444 35.9689 17.5892 35.331C17.6363 34.6604 17.7145 33.9914 17.784 33.3225C17.7932 33.234 17.8099 33.1662 17.6967 33.1294C17.0961 32.9375 16.5008 32.7266 15.8962 32.5479C15.4181 32.4065 14.9371 32.4364 14.4676 32.6191C13.897 32.841 13.4981 33.4489 13.4889 34.0592C13.4694 35.2965 13.8337 36.416 14.4998 37.4429C14.8492 37.9814 15.2348 38.4957 15.5876 39.0319C15.9715 39.6152 16.4106 40.149 16.914 40.6312C17.5208 41.2127 18.1168 41.8064 18.7334 42.3764C19.7322 43.2994 20.801 44.1338 21.9728 44.8303C23.4319 45.698 24.9392 46.475 26.4656 47.2146C28.3999 48.1519 30.3406 49.0754 32.2795 50.0035C33.7995 50.731 35.3178 51.4614 36.8424 52.1792C37.2998 52.3947 37.7676 52.5918 38.2434 52.7625C39.8795 53.3498 41.5524 53.8141 43.227 54.2802C44.7067 54.6922 46.1819 55.0968 47.7163 55.2565C48.6133 55.3496 49.5064 55.3921 50.4017 55.268C51.1298 55.1674 51.6717 54.8094 51.951 54.1124C52.1303 53.6641 52.193 53.1952 52.1274 52.7136C52.0378 52.0527 51.8005 51.4413 51.4798 50.8626C51.0333 50.0569 50.5258 49.2909 49.915 48.6001C48.9949 47.5605 48.0662 46.5284 47.1336 45.5004C46.5727 44.882 45.9969 44.2775 45.4274 43.6672C45.4199 43.6591 45.4055 43.6562 45.3521 43.6315C45.5888 44.2993 45.8147 44.9309 46.0365 45.5641C46.2445 46.1583 46.4652 46.7491 46.6474 47.3514C46.7704 47.7588 46.7514 48.18 46.5738 48.5777C46.4043 48.9576 46.1371 49.2564 45.7026 49.2708C45.1498 49.2892 44.6332 49.1409 44.3263 48.6294C44.1292 48.3007 43.9585 47.9496 43.8235 47.5904C43.2252 46.0003 42.6471 44.4027 42.0541 42.8103C41.9414 42.508 41.7949 42.2178 41.661 41.9242C41.6259 41.8472 41.5777 41.7759 41.5357 41.7018C41.5052 41.7863 41.5041 41.8575 41.5127 41.9276C41.5587 42.3058 41.615 42.6827 41.6535 43.0615C41.773 44.2401 41.8891 45.4187 41.9995 46.5985C42.0506 47.1451 42.073 47.6927 41.9701 48.2375C41.8529 48.8576 41.4213 49.2443 40.8312 49.2409C40.3266 49.238 39.9048 49.0518 39.6674 48.5858C39.4928 48.2433 39.3198 47.891 39.2169 47.5232C38.8876 46.3405 38.4606 45.1941 38.0181 44.0516C37.971 43.9298 37.9228 43.8476 37.7641 43.8281C37.6406 43.8131 37.5211 43.7172 37.4124 43.6384C37.2015 43.4856 37.0067 43.3091 36.7918 43.1626C36.6648 43.0758 36.5183 43.004 36.37 42.9661C35.6988 42.7948 35.0195 42.6523 34.3506 42.4718C33.6259 42.2759 32.9128 42.038 32.1893 41.8386C31.2893 41.5909 30.4716 41.1656 29.6722 40.7007C29.3182 40.495 28.9585 40.3134 28.5654 40.1973C28.116 40.064 27.6609 39.9444 27.2241 39.7761C26.7483 39.5927 26.2909 39.3612 25.8248 39.1514C25.7984 39.1393 25.7685 39.1353 25.7627 39.1342C25.5283 39.5583 25.2938 39.964 25.0777 40.38C24.9341 40.657 24.8042 40.9432 24.6916 41.234C24.6002 41.4702 24.649 41.5397 24.8858 41.6363C25.9145 42.0546 26.677 42.7712 27.1908 43.7465C27.3166 43.9861 27.3988 44.2625 27.4379 44.5309C27.5184 45.0849 27.1103 45.5239 26.5506 45.5222C26.4317 45.5222 26.3098 45.5061 26.1955 45.4745C25.6386 45.3216 25.0978 45.1142 24.6324 44.7728C23.8129 44.1723 22.9589 43.6241 22.1854 42.9528C21.0999 42.0104 20.0614 41.0219 19.0443 40.0088C18.915 39.8801 18.7874 39.7479 18.6736 39.606C18.546 39.4468 18.5667 39.3359 18.7179 39.2123L18.7173 39.2117Z" stroke="black" stroke-width="0.384" mask="url(#path-2-outside-1_729_4240)"/>
<path d="M42.9189 25.4092C43.4624 25.4692 43.9591 25.6761 44.4385 25.8887H44.4375C45.0326 26.1523 45.5224 26.5624 45.9873 26.9893L47.2158 28.1016C47.627 28.4701 48.0395 28.8378 48.4502 29.209L48.8311 29.5752C48.8935 29.636 48.9564 29.6951 49.0195 29.7529L49.2129 29.9209L49.5596 30.1934C49.9078 30.4613 50.2602 30.7178 50.6133 30.9951L50.9326 31.2568C51.037 31.348 51.1383 31.444 51.2314 31.5469L51.3467 31.6641C51.5444 31.8502 51.7713 31.9938 52.0117 32.1289L52.3057 32.2891L52.3379 32.292C52.3599 32.2907 52.3855 32.285 52.4092 32.2783H52.4102L52.5303 32.248C52.6592 32.2214 52.8104 32.2169 52.9443 32.3389L53.0039 32.4033C53.0899 32.5149 53.1075 32.6428 53.0898 32.7646L53.0537 32.9072C53.018 33.0061 52.9754 33.1013 52.9326 33.1934L52.8076 33.4658C52.7865 33.5152 52.7658 33.5639 52.748 33.6123L52.7031 33.7578C52.6403 34.0145 52.4974 34.2176 52.2998 34.3418C52.1267 34.4504 51.9167 34.4958 51.6924 34.4678L51.5947 34.4512C51.3127 34.3905 51.0874 34.2514 50.9453 34.0547C50.8026 33.8572 50.7497 33.6085 50.7998 33.3408L50.834 33.1172L50.8486 33.0273C50.8952 32.8256 51.0208 32.6765 51.1885 32.5654L51.2637 32.5205C51.1732 32.4334 51.0843 32.3476 50.9961 32.2627L50.6387 31.9297C50.3554 31.6779 50.0667 31.4326 49.7695 31.1992V31.1982C49.544 31.0208 49.3339 30.828 49.1318 30.6289L48.54 30.0244C47.9888 29.46 47.4012 28.931 46.8193 28.3906V28.3896C46.6314 28.2154 46.4381 28.0467 46.2441 27.876L45.667 27.3545C44.9782 26.7028 44.1896 26.2646 43.2686 26.125L43.082 26.1006C42.8353 26.0744 42.5754 26.085 42.3232 26.124L42.0742 26.1719C41.5074 26.3048 40.9571 26.4642 40.4805 26.7783L40.2812 26.9229C40.1933 26.9928 40.1093 27.063 40.04 27.1396L39.9756 27.2197C39.4191 27.9925 38.9794 28.8258 38.667 29.7188L38.541 30.1045C38.4618 30.3662 38.4089 30.6396 38.3691 30.916L38.333 31.1924C38.284 31.6095 38.3552 32.0215 38.5156 32.417L38.5791 32.5391C38.6044 32.5786 38.6341 32.6166 38.665 32.6523H38.6641C38.6994 32.693 38.7373 32.7171 38.7764 32.7285C38.8156 32.7399 38.8635 32.7405 38.9209 32.7246L39.0869 32.6719C39.4675 32.5367 39.7859 32.3115 40.0371 31.9873L40.2412 31.708C40.698 31.0459 41.0227 30.3129 41.2695 29.542L41.3633 29.2168C41.4486 28.8891 41.5132 28.5547 41.5947 28.2148L41.5967 28.2021C41.5973 28.1972 41.5993 28.1839 41.6006 28.1748C41.6031 28.1573 41.6092 28.1178 41.6367 28.085L41.7119 27.9961C41.7262 27.9809 41.745 27.963 41.7656 27.9492C41.7834 27.9374 41.8205 27.9165 41.8672 27.9248H41.8682L41.9453 27.9551C41.9696 27.9691 41.9918 27.9856 42.0098 28.002C42.029 28.0195 42.0477 28.0406 42.0625 28.0635C42.0762 28.0848 42.0928 28.1166 42.0938 28.1543L42.1113 28.6875C42.1125 28.7782 42.1113 28.8693 42.1064 28.96L42.0781 29.2305C41.9141 30.2294 41.519 31.1312 40.9551 31.9521L40.7041 32.2988C40.3588 32.7501 39.9125 33.0463 39.3945 33.2227L39.168 33.291C38.9352 33.3526 38.7141 33.3501 38.5234 33.2686C38.3795 33.2069 38.259 33.1031 38.166 32.96L38.082 32.8037C37.9828 32.5781 37.9146 32.3344 37.8691 32.0908L37.8311 31.8477C37.7263 31.0371 37.9433 30.2669 38.2021 29.5371L38.4414 28.9014C38.6946 28.2704 38.992 27.6558 39.3623 27.0742L39.4717 26.9111C39.7342 26.5381 40.0512 26.2228 40.457 26.001L40.7158 25.8662C41.3252 25.5669 41.9742 25.3729 42.6836 25.3926L42.9189 25.4092Z" fill="black" stroke="black" stroke-width="0.192"/>
<path d="M44.8164 28.8369C44.9338 28.7961 45.0621 28.7981 45.1875 28.8691L45.248 28.9102C45.3499 28.9904 45.3954 29.0999 45.4121 29.2158H45.4277L45.4219 29.3164C45.4068 29.5884 45.2942 29.8109 45.085 29.9697L44.9893 30.0342C44.8324 30.1276 44.6629 30.1143 44.5166 30.0137V30.0146C44.3347 29.8909 44.2671 29.7037 44.2949 29.5V29.499L44.3135 29.4023C44.3694 29.1823 44.5067 29.0116 44.7031 28.8916L44.8164 28.8369Z" fill="black" stroke="black" stroke-width="0.192"/>
</svg>
