<svg width="24" height="24" viewBox="0 0 24 24" fill="none" xmlns="http://www.w3.org/2000/svg">
<g clip-path="url(#clip0_573_24690)">
<path d="M21.4003 11.0756L19.5643 10.5245" stroke="black" stroke-width="0.670383" stroke-linecap="round"/>
<path d="M2.09418 6.71773C1.98888 6.33176 1.88358 5.26506 2.30478 4.50715C2.41556 4.30782 2.61617 4.19966 2.8377 4.07127L3.46309 3.55975C3.81409 2.33165 4.54151 1.67778 5.7446 1.13864C7.78041 0.226332 8.69301 -0.194732 9.32482 0.0859777C9.83026 0.310545 10.1672 0.530434 10.2725 0.612307C11.2221 0.252223 14.4865 -0.331135 15.1514 0.998282C15.8237 2.34244 16.218 1.91604 17.2224 2.75272C17.7138 3.16208 20.3814 0.857928 19.9953 3.1036C19.8741 3.80805 19.3209 6.92823 17.9946 6.47211C17.8834 6.4339 17.7705 6.40519 17.6535 6.38057C16.9445 6.23145 16.2122 6.19125 15.4892 6.23776L14.8392 6.27958C14.3005 6.31424 13.7596 6.28371 13.2283 6.18866L10.6937 5.73525C10.214 5.66507 9.57052 5.98087 9.18441 6.22649C8.60036 6.59804 7.99101 7.1388 8.09631 8.01602C8.20161 8.89323 8.13141 8.71779 8.20161 8.96341C8.27181 9.20903 7.53066 9.48593 7.22899 9.75408C6.85621 10.0854 6.79324 10.5062 6.79324 10.9273C6.79324 11.2641 6.7262 11.8658 6.7262 12.2345C6.7262 12.2345 6.0223 12.3351 5.48599 12.4021C5.41785 12.4106 5.11728 11.4971 4.51394 11.3965C3.91059 11.296 3.37429 11.8323 3.37429 11.8323L2.77864 9.55992L2.09418 6.71773Z" fill="black"/>
<path fill-rule="evenodd" clip-rule="evenodd" d="M18.4492 20.9436C18.0212 22.5418 17.8484 23.1872 16.9912 23.5506C15.6131 24.1348 15.3096 24.0679 14.1461 23.8115C14.0688 23.7945 13.9877 23.7766 13.9023 23.7581C12.1602 23.3795 8.97543 22.2109 7.06987 18.9957C6.6423 18.2743 6.42347 17.4881 6.25352 16.8775C6.19466 16.6661 6.14167 16.4757 6.08789 16.3163C6.18375 15.7002 6.22388 15.3222 6.18845 14.7158C6.49012 14.6487 7.22754 14.5146 7.22754 14.5146C7.26106 14.6822 9.6074 17.833 9.74148 17.9671C9.75884 17.9845 9.78181 18.0215 9.8123 18.0706C9.95995 18.3085 10.2838 18.8303 10.9987 18.7764C11.421 18.7445 11.8122 18.5741 12.2047 18.403C12.4884 18.2794 12.7728 18.1555 13.0702 18.0833C13.793 17.9079 14.327 17.8976 15.2031 17.899C15.5838 17.8997 15.9647 17.9238 16.3404 17.9848C17.7831 18.2191 19.0772 18.6325 18.595 20.4024C18.5427 20.594 18.4945 20.7741 18.4492 20.9436ZM13.5845 18.8101C13.4122 18.7424 13.2176 18.8272 13.1499 18.9995C13.0822 19.1718 13.1671 19.3664 13.3394 19.4341C13.6204 19.5444 13.994 19.6676 14.3756 19.7609C14.7521 19.853 15.1604 19.9221 15.5016 19.9099C16.1288 19.8874 16.7095 19.7524 17.1597 19.6451C17.3398 19.6022 17.451 19.4215 17.408 19.2414C17.3651 19.0613 17.1844 18.9501 17.0043 18.993C16.5528 19.1006 16.0308 19.2201 15.4776 19.2399C15.2284 19.2489 14.8907 19.1968 14.5349 19.1097C14.1841 19.024 13.8391 18.9101 13.5845 18.8101Z" fill="black"/>
<path d="M18.9912 10.6292C18.7244 10.538 17.9314 10.4241 16.8488 10.9187" stroke="black" stroke-width="0.670383" stroke-linecap="round"/>
<path d="M14.0817 11.4032C13.6592 11.2771 12.6059 11.0638 11.7723 11.2193C10.9387 11.3747 10.2287 11.615 9.9779 11.7157" stroke="black" stroke-width="0.670383" stroke-linecap="round"/>
<path d="M12.5153 12.2489C12.5153 12.1113 12.4551 11.9601 12.3179 11.9499C12.2945 11.9482 12.2709 11.9473 12.2471 11.9473C11.7288 11.9473 11.3086 12.3675 11.3086 12.8858C11.3086 13.0946 11.3768 13.2875 11.4922 13.4435C11.5919 13.5783 11.7836 13.5507 11.9306 13.4701C12.0644 13.3968 12.2179 13.3551 12.3812 13.3551C12.4813 13.3551 12.5778 13.3707 12.6683 13.3998C12.828 13.451 13.0215 13.4422 13.094 13.291C13.1085 13.2606 13.1786 13.1333 13.1844 12.9177C13.1849 12.8999 13.1699 12.8858 13.1521 12.8858C12.8004 12.8858 12.5153 12.6007 12.5153 12.2489Z" fill="black"/>
<path fill-rule="evenodd" clip-rule="evenodd" d="M18.0179 11.9334C18.0294 11.858 17.9974 11.7752 17.9225 11.7608C17.8753 11.7518 17.8266 11.7471 17.7768 11.7471C17.351 11.7471 17.0059 12.0922 17.0059 12.518C17.0059 12.6425 17.0353 12.76 17.0877 12.8641C17.1836 13.0546 17.4336 13.03 17.6406 12.9784C17.7056 12.9622 17.7737 12.9536 17.8438 12.9536C17.8835 12.9536 17.9225 12.9564 17.9607 12.9617C18.1719 12.9911 18.4232 12.9894 18.4984 12.7899C18.5107 12.7573 18.5208 12.7238 18.5286 12.6893C18.5455 12.615 18.4826 12.5526 18.409 12.5329C18.1802 12.4717 18.0117 12.2629 18.0117 12.0148C18.0117 11.9871 18.0138 11.9599 18.0179 11.9334Z" fill="black"/>
<path d="M4.94922 13.207C5.02743 13.2852 5.19056 13.502 5.21737 13.7433C5.24419 13.9847 5.18385 14.2685 5.15033 14.3802" stroke="black" stroke-width="0.670383" stroke-linecap="round"/>
<path d="M9.39389 12.7234L4.44749 10.9269C3.81062 10.7258 3.47543 11.1189 3.14024 11.2957" stroke="black" stroke-width="0.670383" stroke-linecap="round"/>
<path d="M14.66 14.1261C14.8209 13.6166 14.8164 12.6624 14.7941 12.249C13.5645 11.4965 10.2461 11.8652 10.2461 13.5411C10.2461 15.6891 11.5127 16.0763 12.2131 16.0031C12.8567 15.9763 13.3863 15.8355 13.9226 15.3663C14.1251 15.1891 14.4991 14.6356 14.66 14.1261Z" stroke="black" stroke-width="0.670383" stroke-linecap="round"/>
<path d="M9.27332 12.3349C9.69424 12.4611 10.3795 12.3349 10.9828 12.0332C10.413 12.4354 10.3524 12.4936 10.1553 12.804C9.97197 13.1915 9.91019 14.0108 9.91019 13.6421C9.91019 13.2734 9.81384 13.2179 9.7613 13.1921L8.87109 12.9047C8.93813 12.6701 8.93813 12.2343 9.27332 12.3349Z" fill="black"/>
<path d="M14.8953 12.1302C15.5924 11.815 16.1966 11.8288 16.7207 12.0045" stroke="black" stroke-width="0.670383" stroke-linecap="round"/>
<path d="M19.2284 14.8827C20.4887 14.5341 20.9379 12.771 21.0049 11.933C21.0421 11.6381 20.6405 11.3409 20.4351 11.2291C20.1446 11.1509 19.4362 11.0079 18.9267 11.0615C18.2899 11.1286 17.2172 11.6649 16.8485 12.2682C16.5535 12.7509 16.9156 13.5084 17.2843 14.447C17.4236 14.8017 17.9681 15.2313 19.2284 14.8827Z" stroke="black" stroke-width="0.670383" stroke-linecap="round"/>
<path d="M21.3077 12.1679C21.3142 12.0637 21.3234 11.9741 21.3352 11.8968C21.3179 11.3642 20.8493 11.115 20.5703 10.9948L21.6857 10.9277C21.777 10.9948 21.7707 11.3136 21.6094 11.397C21.477 11.4655 21.3839 11.5759 21.3352 11.8968C21.3379 11.98 21.3295 12.0702 21.3077 12.1679Z" fill="black"/>
<path d="M14.6035 16.86C15.1807 17.0974 17.0799 17.6331 17.5197 16.9606C18.0541 16.1432 17.0304 14.2899 16.313 12.1338" stroke="black" stroke-width="0.670383" stroke-linecap="round"/>
<path d="M5.51829 11.8324C5.1831 11.2961 4.27723 11.1378 3.70826 11.4637C2.99705 11.8711 3.1291 12.9386 3.51005 14.3966C3.84873 15.6927 4.86618 16.3223 5.64369 16.3223C6.12164 16.3223 6.42331 16.0559 6.49035 15.7542" stroke="black" stroke-width="0.670383" stroke-linecap="round"/>
<path d="M7.22964 14.5143L6.19055 14.7315C6.17734 14.4297 6.13765 14.3971 6.05647 14.0115C5.92239 13.3747 5.82184 13.0395 5.45312 12.3691L6.05647 12.302L6.72685 12.168L6.96149 13.6763C7.03683 14.053 7.07139 14.2004 7.22964 14.5143Z" fill="black"/>
</g>
<defs>
<clipPath id="clip0_573_24690">
<rect width="24" height="24" fill="white"/>
</clipPath>
</defs>
</svg>
