<svg width="17" height="17" viewBox="0 0 17 17" fill="none" xmlns="http://www.w3.org/2000/svg">
<path d="M8.36719 16.3281C4.01562 16.3281 0.398438 12.7109 0.398438 8.35938C0.398438 4 4.00781 0.390625 8.35938 0.390625C12.7188 0.390625 16.3359 4 16.3359 8.35938C16.3359 12.7109 12.7266 16.3281 8.36719 16.3281ZM8.36719 15C12.0547 15 15.0078 12.0469 15.0078 8.35938C15.0078 4.67188 12.0469 1.71875 8.35938 1.71875C4.67188 1.71875 1.73438 4.67188 1.73438 8.35938C1.73438 12.0469 4.67969 15 8.36719 15ZM8.36719 4.38281C8.71094 4.38281 8.95312 4.625 8.95312 4.96875V8.875L8.89062 10.5312L9.6875 9.58594L10.6094 8.64844C10.7109 8.53125 10.8516 8.47656 11.0234 8.47656C11.3438 8.47656 11.5938 8.71875 11.5938 9.03906C11.5938 9.20312 11.5312 9.34375 11.4297 9.44531L8.82812 12.0391C8.67969 12.1875 8.53906 12.2656 8.36719 12.2656C8.20312 12.2656 8.07031 12.1953 7.91406 12.0391L5.30469 9.44531C5.20312 9.34375 5.15625 9.20312 5.15625 9.03906C5.15625 8.71875 5.39844 8.47656 5.71875 8.47656C5.88281 8.47656 6.02344 8.53906 6.13281 8.64844L7.0625 9.58594L7.84375 10.5234L7.78125 8.875V4.96875C7.78125 4.625 8.03125 4.38281 8.36719 4.38281Z" fill="black"/>
</svg> 